<?xml version="1.0" encoding="utf-8"?>
<!-- Generator: Adobe Illustrator 24.0.1, SVG Export Plug-In . SVG Version: 6.00 Build 0)  -->
<svg version="1.1" id="Layer_1" xmlns="http://www.w3.org/2000/svg" xmlns:xlink="http://www.w3.org/1999/xlink" x="0px" y="0px"
	 viewBox="0 0 132 31" style="enable-background:new 0 0 132 31;" xml:space="preserve">
<style type="text/css">
	.st0{fill:#FFFFFF;}
	.st1{fill:#111827;}
	.st2{enable-background:new    ;}
	.st3{font-family:'Montserrat-Black';}
	.st4{font-size:12px;}
	.st5{font-family:'Montserrat-Bold';}
	.st6{font-size:8px;}
</style>
<g>
	<path class="st0" d="M92.4,10.6c0.2,0,0.3,0,0.5,0.1c0.3,0.1,0.5,0.1,0.6-0.3c0.1-0.3,0-0.5-0.2-0.7C93,9.5,92.8,9.2,92.6,9
		c-0.3-0.3-0.4-0.5-0.1-0.9c0.2-0.4,0.6-0.4,0.9-0.3c0.4,0.1,0.7,0.1,1.1,0.3C94.7,8.2,94.9,8.2,95,8c0.1-0.2,0.4-0.4,0.1-0.7
		c-0.3-0.4-0.6-0.8-0.7-1.3c-0.1-0.3,0-0.4,0.2-0.6s0.3-0.4,0.7-0.3c0.5,0.2,0.9,0.4,1.3,0.7c0.2,0.2,0.3,0.2,0.5,0s0.4-0.3,0.2-0.6
		c-0.2-0.4-0.3-0.9-0.4-1.4c-0.1-0.4,0.2-0.5,0.4-0.6c0.2-0.1,0.4-0.2,0.7,0c0.3,0.3,0.6,0.5,0.9,0.9c0.2,0.2,0.3,0.4,0.7,0.3
		C100,4.2,100,4,99.9,3.7c0-0.3,0-0.6,0-1s0.2-0.6,0.6-0.8c0.5-0.1,0.6,0.1,0.8,0.4c0.2,0.3,0.4,0.6,0.5,0.9
		c0.1,0.3,0.3,0.4,0.6,0.3c0.3,0,0.5-0.1,0.5-0.4c0-0.4,0.1-0.8,0.3-1.1c0.1-0.3,0.3-0.5,0.7-0.5c0.4,0,0.6,0.2,0.7,0.5
		c0.1,0.4,0.3,0.7,0.3,1.1s0.2,0.4,0.5,0.4s0.4,0,0.5-0.3c0.1-0.4,0.3-0.7,0.5-1s0.3-0.5,0.8-0.4c0.4,0.1,0.6,0.3,0.6,0.7
		s0.1,0.8,0,1.2c-0.1,0.3,0.1,0.4,0.3,0.5c0.2,0.1,0.4,0.2,0.6-0.1c0.3-0.4,0.6-0.7,1-1c0.3-0.2,0.5-0.1,0.7,0.1
		c0.2,0.1,0.4,0.3,0.3,0.6c-0.1,0.5-0.1,1-0.4,1.4c-0.2,0.3,0,0.4,0.2,0.5s0.3,0.3,0.6,0.1c0.3-0.3,0.7-0.5,1-0.7
		c0.4-0.2,0.7-0.1,1,0.2c0.2,0.2,0.2,0.3,0.1,0.6c-0.2,0.4-0.4,0.9-0.7,1.2c-0.3,0.3-0.1,0.4,0,0.6c0.2,0.2,0.3,0.4,0.6,0.2
		c0.3-0.2,0.7-0.3,1.1-0.3c0.3-0.1,0.6-0.1,0.9,0.3c0.2,0.4,0.1,0.7-0.1,1s-0.5,0.5-0.8,0.7c-0.2,0.2-0.4,0.3-0.2,0.6
		c0.1,0.3,0.3,0.4,0.6,0.3c0.4-0.1,0.9-0.1,1.3,0c0.3,0,0.4,0.2,0.4,0.4c0,0.3,0.2,0.5-0.1,0.7c-0.4,0.3-0.8,0.6-1.3,0.7
		c-0.3,0.1-0.3,0.3-0.3,0.5s0,0.5,0.4,0.5s0.8,0.1,1.1,0.3c0.4,0.1,0.6,0.3,0.6,0.8s-0.3,0.6-0.6,0.7c-0.3,0.1-0.7,0.3-1,0.2
		c-0.3,0-0.4,0.2-0.5,0.5c0,0.3,0,0.4,0.3,0.5c0.4,0.1,0.7,0.3,1,0.5s0.5,0.4,0.4,0.8s-0.4,0.5-0.7,0.6c-0.4,0-0.7,0-1.1,0
		c-0.3-0.1-0.5,0-0.6,0.3s0,0.5,0.2,0.6c0.3,0.2,0.5,0.5,0.8,0.8c0.2,0.3,0.3,0.5,0.1,0.9c-0.2,0.4-0.5,0.4-0.9,0.3
		s-0.7-0.1-1.1-0.3c-0.3-0.1-0.4-0.1-0.6,0.2c-0.1,0.2-0.4,0.4,0,0.6c0.3,0.3,0.4,0.6,0.6,1s0.1,0.6-0.2,1c-0.3,0.3-0.6,0.2-0.9,0
		c-0.4-0.2-0.7-0.3-1-0.6c-0.2-0.2-0.3-0.2-0.5,0s-0.4,0.2-0.2,0.6c0.2,0.4,0.3,0.9,0.4,1.4c0,0.4-0.2,0.5-0.4,0.6
		c-0.2,0.1-0.4,0.2-0.6,0c-0.4-0.3-0.8-0.6-1-1c-0.2-0.3-0.4-0.2-0.6-0.1c-0.3,0.1-0.4,0.2-0.3,0.5c0.1,0.4,0.1,0.7,0.1,1.1
		s-0.1,0.7-0.6,0.8c-0.5,0.1-0.7-0.1-0.9-0.4c-0.2-0.3-0.4-0.6-0.5-1c-0.1-0.3-0.3-0.3-0.5-0.3s-0.4,0-0.4,0.4s-0.1,0.8-0.3,1.2
		c-0.1,0.4-0.4,0.5-0.8,0.5s-0.5-0.3-0.7-0.6c-0.1-0.4-0.3-0.8-0.3-1.1c0-0.3-0.2-0.4-0.4-0.4c-0.2,0-0.5-0.1-0.6,0.2
		c-0.1,0.4-0.3,0.7-0.5,1s-0.3,0.6-0.8,0.4c-0.5-0.1-0.6-0.4-0.6-0.8c0-0.3,0-0.7,0-1c0.1-0.3,0-0.5-0.3-0.6s-0.4,0-0.6,0.2
		c-0.2,0.3-0.5,0.5-0.7,0.7c-0.3,0.4-0.7,0.4-1.1,0.1c-0.2-0.1-0.3-0.3-0.2-0.5c0.1-0.5,0.1-1,0.4-1.4c0.2-0.3,0-0.4-0.2-0.6
		c-0.2-0.1-0.4-0.3-0.6-0.1c-0.3,0.3-0.7,0.4-1,0.6c-0.4,0.2-0.7,0.1-1-0.2c-0.1-0.2-0.2-0.3-0.1-0.5c0.2-0.4,0.4-0.9,0.7-1.2
		c0.2-0.2,0.2-0.4,0-0.6s-0.3-0.4-0.6-0.2c-0.3,0.2-0.7,0.3-1.1,0.3c-0.3,0.1-0.6,0.1-0.9-0.3c-0.2-0.4-0.1-0.7,0.1-0.9
		c0.2-0.3,0.5-0.5,0.8-0.7c0.2-0.1,0.4-0.3,0.2-0.6c-0.1-0.3-0.2-0.5-0.6-0.4c-0.3,0.1-0.7,0.1-1.1,0c-0.3,0-0.6-0.1-0.8-0.5
		c-0.1-0.5,0.1-0.7,0.4-0.9c0.3-0.2,0.6-0.4,1-0.5s0.3-0.4,0.3-0.6c0-0.3-0.2-0.4-0.4-0.4c-0.4,0-0.7-0.1-1.1-0.2
		c-0.5-0.1-0.7-0.4-0.6-0.9c0-0.3,0.1-0.4,0.4-0.5c0.4-0.2,0.9-0.3,1.3-0.3c0.3,0,0.4-0.1,0.4-0.4c0-0.3,0.1-0.5-0.3-0.6
		c-0.3-0.1-0.6-0.2-0.9-0.4S91,11.5,91.2,11c0.1-0.6,0.5-0.5,0.9-0.6C92.2,10.6,92.3,10.6,92.4,10.6L92.4,10.6z"/>
	<path class="st1" d="M103,24.8c-3.8-0.2-6.9-2.3-8.8-6.2c-0.2-0.4-0.1-0.6,0.3-0.8c0.3-0.1,0.7-0.2,1-0.3c0.4-0.2,0.6-0.1,0.8,0.3
		c0.8,1.8,2.1,3.2,3.9,4c4,1.9,8.9,0.2,10.8-3.9c0.3-0.6,0.3-0.6,0.9-0.4c0.3,0.1,0.6,0.2,0.9,0.3c0.4,0.1,0.5,0.3,0.3,0.7
		c-1.2,2.7-3.2,4.6-5.9,5.7C106.1,24.6,104.9,24.8,103,24.8z"/>
	<path class="st1" d="M93.4,14.5c0-2.5,0.8-4.7,2.4-6.6c0.5-0.5,0.5-0.5,1-0.1C97,8,97.3,8.3,97.5,8.5c0.3,0.3,0.3,0.5,0,0.8
		c-1.2,1.3-1.8,2.9-1.9,4.7c0,0.6,0,1.2,0.1,1.8c0.1,0.4,0,0.7-0.5,0.8c-0.3,0.1-0.7,0.2-1,0.3c-0.5,0.2-0.6,0-0.7-0.4
		C93.5,15.9,93.4,15.2,93.4,14.5z"/>
	<path class="st1" d="M114,14.5c0,0.7,0,1.4-0.2,2.1c-0.1,0.3-0.2,0.5-0.6,0.3c-0.4-0.1-0.8-0.2-1.1-0.3c-0.4-0.1-0.5-0.3-0.4-0.7
		c0.3-1.5,0.2-2.9-0.4-4.4c-0.3-0.9-0.8-1.6-1.4-2.3c-0.3-0.3-0.3-0.5,0-0.8c0.3-0.2,0.5-0.5,0.8-0.8s0.5-0.4,0.8,0
		c1.5,1.7,2.3,3.7,2.5,5.9C114,14,114,14.2,114,14.5z"/>
	<path class="st1" d="M103.4,4.2c2.6,0,4.7,0.8,6.6,2.1c0.3,0.2,0.4,0.5,0.1,0.8c-0.2,0.2-0.5,0.5-0.7,0.8c-0.3,0.4-0.5,0.4-0.9,0.1
		c-1.6-1.2-3.4-1.7-5.3-1.6c-1.5,0.1-2.9,0.6-4.2,1.5c-0.6,0.4-0.6,0.4-1-0.1c-0.2-0.2-0.4-0.5-0.6-0.7c-0.4-0.3-0.3-0.5,0.1-0.8
		C99.3,5,101.4,4.2,103.4,4.2z"/>
	<path class="st1" d="M111,14.6c0,0.7-0.1,1.5-0.4,2.2c-0.1,0.3-0.2,0.4-0.5,0.2c-1.1-0.7-2.2-1.5-3.2-2.2c-0.3-0.2-0.3-0.5,0-0.7
		c1.1-0.7,2.2-1.5,3.2-2.2c0.3-0.2,0.5-0.1,0.5,0.2C110.9,12.9,111,13.7,111,14.6z"/>
	<path class="st1" d="M102.7,21c0,0.1,0,0.3,0,0.4c0,0.3-0.1,0.4-0.5,0.4c-1.5-0.4-2.8-1.1-3.9-2.2c-0.4-0.4-0.4-0.5,0.1-0.7
		c1.1-0.5,2.2-1.1,3.2-1.6c0.5-0.3,0.7-0.2,0.7,0.4C102.6,18.7,102.6,19.9,102.7,21z"/>
	<path class="st1" d="M102.7,7.6c-0.1,1.5-0.2,2.7-0.3,4c0,0.4-0.2,0.5-0.6,0.4c-1.2-0.6-2.4-1.1-3.6-1.7c-0.3-0.1-0.3-0.3-0.1-0.5
		c1.1-1.2,2.5-2,4.2-2.4C102.6,7.2,102.7,7.3,102.7,7.6z"/>
	<path class="st1" d="M104.8,20.9c0.1-1.1,0.1-2.2,0.2-3.3c0-0.6,0.2-0.7,0.8-0.5c1.1,0.5,2.2,1,3.2,1.6c0.5,0.2,0.5,0.3,0.1,0.7
		c-1,1-2.2,1.7-3.6,2.1C104.7,21.8,104.7,21.8,104.8,20.9z"/>
	<path class="st1" d="M96.4,14.6c0-0.9,0.1-1.7,0.3-2.4c0.1-0.4,0.2-0.5,0.6-0.2c1.1,0.7,2.1,1.4,3.2,2.2c0.3,0.2,0.4,0.5,0,0.7
		c-1.1,0.7-2.1,1.4-3.2,2.2c-0.3,0.2-0.5,0.2-0.6-0.2C96.5,16,96.4,15.3,96.4,14.6z"/>
	<path class="st1" d="M104.7,8c0-0.9,0-0.9,0.8-0.7c1.4,0.4,2.6,1.2,3.6,2.2c0.3,0.3,0.2,0.4-0.1,0.6c-1.1,0.5-2.3,1.1-3.4,1.6
		c-0.5,0.2-0.6,0.1-0.7-0.4C104.9,10.3,104.8,9.2,104.7,8z"/>
	<path class="st0" d="M103.7,17.1c-1.4,0-2.5-1.2-2.5-2.6s1.2-2.6,2.6-2.6s2.6,1.2,2.6,2.6C106.2,16,105.1,17.1,103.7,17.1z"/>
	<path class="st0" d="M96.3,19.9c-0.3,0.2-0.5,0.3-0.6,0.4s-0.2,0-0.3-0.1c-0.1-0.1-0.1-0.2,0.1-0.3c0.3-0.2,0.7-0.5,1-0.7
		c0.1-0.1,0.2-0.2,0.3-0.1c0.1,0.1,0.1,0.2,0.1,0.3c-0.1,0.3-0.2,0.5-0.3,0.9c0.2-0.2,0.4-0.3,0.5-0.4s0.2-0.1,0.3,0
		c0.1,0.1,0,0.2-0.1,0.3c-0.3,0.2-0.6,0.5-0.9,0.7c-0.1,0.1-0.2,0.2-0.3,0.1c-0.1-0.1-0.2-0.2-0.1-0.4
		C96.1,20.5,96.2,20.2,96.3,19.9z"/>
	<path class="st0" d="M111,21.4C111,21.3,111,21.3,111,21.4c-0.2-0.1-0.9-1.4-0.9-1.5c0.1-0.1,0.1-0.3,0.4-0.2
		c0.4,0.2,0.8,0.3,1.3,0.4c0.1,0,0.2,0,0.2,0.1s-0.1,0.2-0.2,0.2c-0.5,0-0.6,0.2-0.5,0.6C111.2,21.2,111.1,21.3,111,21.4z"/>
	<path class="st0" d="M98.7,21.2c0,0.1-0.1,0.3-0.3,0.1c-0.3-0.3-0.4-0.1-0.6,0.1c-0.1,0.2-0.3,0.3-0.4,0.5c-0.1,0.1-0.2,0.1-0.3,0
		c-0.1-0.1-0.1-0.2,0-0.3c0.1-0.1,0.2-0.3,0.4-0.4c0.2-0.2,0.5-0.4,0.1-0.7c-0.1-0.1,0-0.2,0.1-0.3C97.7,20.4,98.7,21.2,98.7,21.2z"
		/>
	<path class="st0" d="M111,18.8c0.2,0.1,0.4,0.2,0.7,0.4c0.3,0.2,0.5,0.2,0.7-0.2c0-0.1,0.1-0.4,0.3-0.2c0.2,0.1,0,0.3,0,0.4
		c-0.4,0.7-0.4,0.7-1.1,0.3c-0.2-0.1-0.4-0.2-0.6-0.4C110.9,19.1,110.9,19,111,18.8C110.9,18.8,110.9,18.8,111,18.8z"/>
	<path class="st0" d="M96.5,18.8c0,0.1-0.1,0.2-0.2,0.2c-0.3,0.2-0.6,0.4-0.9,0.5c-0.1,0.1-0.2,0.2-0.3,0c-0.1-0.2,0-0.2,0.1-0.3
		c0.3-0.2,0.7-0.4,1-0.6c0.1,0,0.2-0.1,0.3,0C96.5,18.7,96.5,18.8,96.5,18.8z"/>
	<path class="st0" d="M106.8,6.7c-0.3,0-0.4-0.2-0.4-0.4c0-0.1,0-0.3-0.2-0.3S106,6.2,106,6.3c0,0.1-0.1,0.3-0.3,0.2
		c-0.2-0.1-0.2-0.2-0.1-0.4c0.1-0.2,0.1-0.5,0.2-0.7s0-0.5,0.3-0.5s0.7,0.1,0.9,0.3c0.1,0.1,0.2,0.4,0,0.5
		C106.7,6,106.8,6.3,106.8,6.7z"/>
	<path class="st0" d="M100.3,6.8c-0.3,0.3-0.4,0.1-0.6-0.1c-0.1-0.1-0.2-0.1-0.3-0.1c-0.1,0.1,0,0.2,0,0.3c0.1,0.1,0.2,0.3,0,0.4
		c-0.2,0.1-0.3-0.1-0.3-0.2c-0.1-0.2-0.2-0.4-0.3-0.6c-0.1-0.2-0.4-0.4-0.2-0.6c0.2-0.2,0.5-0.5,0.9-0.4c0.3,0.1,0.4,0.3,0.4,0.6
		C99.8,6.5,100.2,6.5,100.3,6.8z"/>
	<path class="st0" d="M101.9,5.7c0,0.5-0.4,0.9-0.9,0.8c-0.4,0-0.8-0.4-0.8-0.9s0.3-0.8,0.8-0.8C101.6,4.9,101.9,5.2,101.9,5.7z"/>
	<path class="st0" d="M103.6,6.1c0.2-0.5,0.5-0.9,0.7-1.4c0.1-0.1,0.1-0.2,0.3-0.2c0.2,0,0.2,0.1,0.3,0.2c0.1,0.4,0.2,0.8,0.3,1.2
		c0,0.1,0.1,0.2,0,0.2s-0.2,0-0.2,0c-0.3-0.4-0.6-0.4-0.9-0.1C103.9,6.1,103.8,6.1,103.6,6.1z"/>
	<path class="st0" d="M103.2,4.5c0.1,0,0.3-0.1,0.3,0.1s-0.1,0.2-0.3,0.2C103,4.8,103,5,103,5.1c0,0.3,0.1,0.5,0.1,0.8
		c0,0.1-0.1,0.2-0.2,0.2s-0.2,0-0.2-0.2s0-0.4-0.1-0.7c0-0.2,0-0.5-0.4-0.4c-0.1,0-0.2,0-0.2-0.1s0.1-0.2,0.2-0.2
		C102.6,4.5,102.9,4.5,103.2,4.5z"/>
	<path class="st0" d="M109,6.1c-0.5,0.3-1,0.4-1.2,1c0,0.1-0.1,0.1-0.3,0c-0.1-0.1-0.2-0.1-0.1-0.2c0.4-0.5,0.1-1,0.1-1.5
		c0.6,0,0.4,0.5,0.5,0.7C108.4,6.1,108.7,5.7,109,6.1z"/>
	<path class="st1" d="M103.8,12.2c1.3,0,2.3,1.1,2.3,2.4s-1.1,2.3-2.4,2.3s-2.3-1.1-2.2-2.4C101.4,13.2,102.5,12.2,103.8,12.2z"/>
	<path class="st1" d="M110.6,20c0.3,0.2,0.8,0.1,0.3,0.5C110.7,20.4,110.7,20.3,110.6,20z"/>
	<path class="st1" d="M106.4,5.2c0.1,0.1,0.3,0,0.3,0.2c0,0.1-0.1,0.2-0.2,0.2s-0.3,0-0.3-0.2C106.2,5.3,106.2,5.2,106.4,5.2z"/>
	<path class="st1" d="M99.4,6.1c0,0.2-0.1,0.3-0.3,0.3c-0.2,0.1-0.2-0.1-0.2-0.2c0-0.2,0.2-0.2,0.3-0.3C99.3,5.9,99.4,6,99.4,6.1z"
		/>
	<path class="st1" d="M101.1,5.2c0.3,0,0.5,0.2,0.5,0.5s-0.2,0.5-0.5,0.5s-0.5-0.2-0.5-0.5C100.6,5.3,100.8,5.2,101.1,5.2z"/>
	<path class="st1" d="M104.6,5.1c0.1,0.2,0.2,0.3,0.1,0.5c0,0-0.2,0-0.3,0C104.3,5.3,104.5,5.2,104.6,5.1z"/>
	<path class="st0" d="M103.7,16c-0.7,0-1.2-0.4-1.4-1.1c-0.2-0.7,0.1-1.3,0.6-1.7c0.2-0.1,0.4-0.1,0.4-0.5c0-0.2,0.7-0.2,0.7,0
		c0,0.3,0.2,0.3,0.4,0.4c0.6,0.4,0.9,1,0.7,1.7C105,15.6,104.4,16,103.7,16z"/>
	<text transform="matrix(1 0 0 1 17.0401 14.9999)" class="st2"><tspan x="0" y="0" class="st0 st3 st4">ROTARACT</tspan><tspan x="0" y="9.6" class="st0 st5 st6">DISTRICT 3142</tspan></text>
</g>
</svg>
