<svg width="98" height="85" viewBox="0 0 98 85" fill="none" xmlns="http://www.w3.org/2000/svg">
<rect x="20" width="60.8644" height="59.85" rx="16" fill="#003A5D"/>
<g clip-path="url(#clip0_1246_14626)">
<path d="M30 36.9576C30 37.9513 30 38.9015 30 39.8826C42.9786 39.8826 55.929 39.8826 68.9284 39.8826C68.9284 38.929 68.9284 37.9651 68.9284 36.9576C55.9767 36.9576 43.0116 36.9576 30 36.9576Z" fill="#30BAAB"/>
<path d="M29.8799 19.9803C29.8956 19.9698 29.9126 19.9511 29.9283 19.9511C32.6713 19.957 35.4215 19.7613 38.1548 20.0711C40.9002 20.3821 43.1911 22.6195 43.6177 25.2517C43.905 27.0244 43.768 28.7423 42.8492 30.3216C41.5572 32.5439 39.3996 33.3871 36.8918 33.4733C34.6931 33.5478 32.4883 33.4896 30.2871 33.4885C30.0714 33.4885 29.8023 33.5444 29.8871 33.1798C29.9211 33.1612 29.9538 33.1274 29.989 33.1251C31.4726 33.0121 31.6616 32.8851 31.6725 31.4479C31.698 28.111 31.6665 24.773 31.6386 21.435C31.6325 20.6931 31.2592 20.4263 30.2944 20.3635C29.898 20.3367 29.898 20.3367 29.8799 19.9803ZM34.7828 20.7292C34.7828 21.0483 34.7816 21.3173 34.7828 21.5864C34.7913 24.8825 34.7973 28.1786 34.8107 31.4747C34.8143 32.4356 35.1076 32.7104 36.1112 32.7361C37.9645 32.7838 39.3463 31.8276 39.8517 30.0607C40.4735 27.8897 40.4881 25.6931 39.8433 23.5303C39.4263 22.135 38.6724 20.9621 36.9597 20.7758C36.2591 20.7 35.5525 20.6896 34.7828 20.7292Z" fill="white"/>
<path d="M62.1194 27.3172C62.1194 28.9427 62.1015 30.5111 62.129 32.0783C62.1397 32.6664 62.509 32.9714 63.1806 33.0506C63.4937 33.0867 63.8104 33.0844 64.1319 33.0995C64.2418 33.3918 64.1474 33.4966 63.8475 33.4966C61.7573 33.4907 59.6672 33.4907 57.577 33.4966C57.3201 33.4977 57.1958 33.4232 57.2687 33.1438C57.3117 33.1263 57.3631 33.089 57.4169 33.0855C58.7661 32.9889 58.9943 32.8387 59.0123 31.5276C59.0565 28.2312 59.0493 24.9337 59.023 21.6373C59.0147 20.6173 58.7278 20.4066 57.6272 20.3367C57.2998 20.3158 57.2998 20.3158 57.2962 19.8989C59.0051 19.8989 60.714 19.8919 62.4229 19.9012C63.5559 19.9071 64.6912 19.843 65.8169 20.0352C68.2166 20.4462 69.5777 22.4396 68.8977 24.6379C68.4173 26.1889 67.184 26.8794 65.6376 27.1449C64.4976 27.3393 63.3479 27.3277 62.1194 27.3172ZM62.111 26.4311C62.5915 26.5499 63.0432 26.4998 63.4937 26.4625C64.6577 26.3659 65.2935 25.821 65.5588 24.7276C65.7643 23.8811 65.7189 23.0381 65.5134 22.2044C65.3353 21.4836 64.9326 20.9399 64.1271 20.7862C63.4638 20.6593 62.7994 20.6802 62.111 20.7501C62.111 22.641 62.111 24.511 62.111 26.4311Z" fill="white"/>
<path d="M45.2949 33.7659C45.2949 32.1833 45.2949 30.5972 45.2949 29.0041C45.459 28.8969 45.643 28.9295 45.8259 28.9598C46.3155 31.8514 48.7147 33.1044 51.0938 33.0136C51.7587 32.988 52.3598 32.7946 52.897 32.4441C54.1154 31.6499 53.9225 29.7529 52.5251 29.0879C51.0475 28.3845 49.4547 27.928 47.9283 27.3248C45.6781 26.4363 44.6688 24.0583 45.752 22.0716C46.4206 20.8465 47.6202 20.2468 49.0327 19.9906C50.479 19.7285 51.8414 20.0406 53.1762 20.5309C53.4066 20.6159 53.6445 20.7044 53.8862 20.737C54.2719 20.7906 54.6163 20.6986 54.6901 20.2829C54.7577 19.8997 54.9656 19.8683 55.33 19.9987C55.33 20.1408 55.33 20.2735 55.33 20.4063C55.33 21.6465 55.33 22.8879 55.33 24.1107C54.8329 24.3576 54.7465 24.049 54.6526 23.7427C53.9952 21.6139 52.0893 20.4354 49.739 20.7021C48.5481 20.8372 47.649 21.5848 47.6127 22.4885C47.5777 23.3607 48.0285 23.957 48.8662 24.3191C50.206 24.8979 51.6122 25.3183 52.9897 25.8074C55.7608 26.7915 56.9679 29.7645 55.3901 31.9224C54.2857 33.434 52.5739 33.88 50.6969 33.8718C49.6187 33.8672 48.6132 33.5504 47.6115 33.2127C46.6423 32.8866 46.5346 32.9286 45.9022 33.6867C45.7783 33.8381 45.7783 33.8381 45.2949 33.7659Z" fill="white"/>
</g>
<path d="M6.02139 82L6.02139 74.152H8.12139C9.32139 74.152 10.2574 74.476 10.9294 75.124C11.6014 75.772 11.9374 76.744 11.9374 78.04C11.9374 79.344 11.6054 80.332 10.9414 81.004C10.2774 81.668 9.36139 82 8.19339 82H6.02139ZM7.41339 80.872H8.02539C8.81739 80.872 9.42939 80.644 9.86139 80.188C10.2934 79.724 10.5094 79.008 10.5094 78.04C10.5094 77.08 10.2934 76.38 9.86139 75.94C9.42939 75.5 8.81739 75.28 8.02539 75.28H7.41339V80.872ZM15.8134 82.144C15.2854 82.144 14.7734 82.044 14.2774 81.844C13.7894 81.644 13.3574 81.36 12.9814 80.992L13.7974 80.044C14.0774 80.308 14.3974 80.524 14.7574 80.692C15.1174 80.852 15.4774 80.932 15.8374 80.932C16.2854 80.932 16.6254 80.84 16.8574 80.656C17.0894 80.472 17.2054 80.228 17.2054 79.924C17.2054 79.596 17.0894 79.36 16.8574 79.216C16.6334 79.072 16.3454 78.924 15.9934 78.772L14.9134 78.304C14.6574 78.192 14.4054 78.048 14.1574 77.872C13.9174 77.696 13.7174 77.472 13.5574 77.2C13.4054 76.928 13.3294 76.6 13.3294 76.216C13.3294 75.8 13.4414 75.428 13.6654 75.1C13.8974 74.764 14.2094 74.5 14.6014 74.308C15.0014 74.108 15.4574 74.008 15.9694 74.008C16.4254 74.008 16.8654 74.1 17.2894 74.284C17.7134 74.46 18.0774 74.7 18.3814 75.004L17.6734 75.892C17.4254 75.684 17.1614 75.52 16.8814 75.4C16.6094 75.28 16.3054 75.22 15.9694 75.22C15.6014 75.22 15.3014 75.304 15.0694 75.472C14.8454 75.632 14.7334 75.856 14.7334 76.144C14.7334 76.344 14.7894 76.512 14.9014 76.648C15.0214 76.776 15.1774 76.888 15.3694 76.984C15.5614 77.072 15.7654 77.16 15.9814 77.248L17.0494 77.692C17.5134 77.892 17.8934 78.156 18.1894 78.484C18.4854 78.804 18.6334 79.248 18.6334 79.816C18.6334 80.24 18.5214 80.628 18.2974 80.98C18.0734 81.332 17.7494 81.616 17.3254 81.832C16.9094 82.04 16.4054 82.144 15.8134 82.144ZM20.0605 82V74.152H22.5325C23.1165 74.152 23.6365 74.228 24.0925 74.38C24.5485 74.532 24.9085 74.784 25.1725 75.136C25.4365 75.488 25.5685 75.968 25.5685 76.576C25.5685 77.152 25.4365 77.628 25.1725 78.004C24.9085 78.38 24.5525 78.66 24.1045 78.844C23.6565 79.028 23.1485 79.12 22.5805 79.12H21.4525V82H20.0605ZM21.4525 78.004H22.4725C23.6245 78.004 24.2005 77.528 24.2005 76.576C24.2005 76.08 24.0485 75.74 23.7445 75.556C23.4485 75.364 23.0085 75.268 22.4245 75.268H21.4525V78.004ZM29.4472 82V74.152H31.0192L32.4112 77.992C32.4992 78.24 32.5832 78.496 32.6632 78.76C32.7512 79.016 32.8352 79.272 32.9152 79.528H32.9632C33.0512 79.272 33.1352 79.016 33.2152 78.76C33.2952 78.496 33.3752 78.24 33.4552 77.992L34.8112 74.152H36.3952V82H35.1112V78.412C35.1112 78.164 35.1192 77.896 35.1352 77.608C35.1592 77.312 35.1832 77.016 35.2072 76.72C35.2392 76.424 35.2672 76.156 35.2912 75.916H35.2432L34.6072 77.74L33.3232 81.268H32.4952L31.1992 77.74L30.5752 75.916H30.5272C30.5512 76.156 30.5752 76.424 30.5992 76.72C30.6312 77.016 30.6552 77.312 30.6712 77.608C30.6952 77.896 30.7072 78.164 30.7072 78.412V82H29.4472ZM40.0206 82.144C39.3886 82.144 38.9286 81.94 38.6406 81.532C38.3526 81.124 38.2086 80.548 38.2086 79.804V76.108H39.5886V79.624C39.5886 80.112 39.6606 80.456 39.8046 80.656C39.9486 80.856 40.1806 80.956 40.5006 80.956C40.7566 80.956 40.9806 80.892 41.1726 80.764C41.3726 80.636 41.5846 80.428 41.8086 80.14V76.108H43.1886V82H42.0606L41.9526 81.136H41.9166C41.6606 81.44 41.3806 81.684 41.0766 81.868C40.7726 82.052 40.4206 82.144 40.0206 82.144ZM47.0125 82.144C46.3325 82.144 45.8485 81.948 45.5605 81.556C45.2805 81.156 45.1405 80.64 45.1405 80.008V77.2H44.3005V76.168L45.2125 76.108L45.3805 74.5H46.5325V76.108H48.0325V77.2H46.5325V80.008C46.5325 80.696 46.8085 81.04 47.3605 81.04C47.4645 81.04 47.5725 81.028 47.6845 81.004C47.7965 80.972 47.8925 80.94 47.9725 80.908L48.2125 81.928C48.0525 81.984 47.8685 82.032 47.6605 82.072C47.4605 82.12 47.2445 82.144 47.0125 82.144ZM51.0245 82.144C50.3925 82.144 49.9325 81.94 49.6445 81.532C49.3565 81.124 49.2125 80.548 49.2125 79.804V76.108H50.5925V79.624C50.5925 80.112 50.6645 80.456 50.8085 80.656C50.9525 80.856 51.1845 80.956 51.5045 80.956C51.7605 80.956 51.9845 80.892 52.1765 80.764C52.3765 80.636 52.5885 80.428 52.8125 80.14V76.108H54.1925V82H53.0645L52.9565 81.136H52.9205C52.6645 81.44 52.3845 81.684 52.0805 81.868C51.7765 82.052 51.4245 82.144 51.0245 82.144ZM57.3685 82.144C56.8565 82.144 56.4365 81.984 56.1085 81.664C55.7885 81.344 55.6285 80.928 55.6285 80.416C55.6285 79.784 55.9045 79.296 56.4565 78.952C57.0085 78.6 57.8885 78.36 59.0965 78.232C59.0885 77.92 59.0045 77.652 58.8445 77.428C58.6925 77.196 58.4165 77.08 58.0165 77.08C57.7285 77.08 57.4445 77.136 57.1645 77.248C56.8925 77.36 56.6245 77.496 56.3605 77.656L55.8565 76.732C56.1845 76.524 56.5525 76.344 56.9605 76.192C57.3765 76.04 57.8165 75.964 58.2805 75.964C59.0165 75.964 59.5645 76.184 59.9245 76.624C60.2925 77.056 60.4765 77.684 60.4765 78.508V82H59.3365L59.2405 81.352H59.1925C58.9285 81.576 58.6445 81.764 58.3405 81.916C58.0445 82.068 57.7205 82.144 57.3685 82.144ZM57.8125 81.064C58.0525 81.064 58.2685 81.008 58.4605 80.896C58.6605 80.776 58.8725 80.616 59.0965 80.416V79.096C58.2965 79.2 57.7405 79.356 57.4285 79.564C57.1165 79.764 56.9605 80.012 56.9605 80.308C56.9605 80.572 57.0405 80.764 57.2005 80.884C57.3605 81.004 57.5645 81.064 57.8125 81.064ZM63.472 82.144C62.984 82.144 62.636 81.996 62.428 81.7C62.228 81.404 62.128 81 62.128 80.488V73.528H63.508V80.56C63.508 80.728 63.54 80.848 63.604 80.92C63.668 80.984 63.736 81.016 63.808 81.016C63.84 81.016 63.868 81.016 63.892 81.016C63.924 81.008 63.968 81 64.024 80.992L64.204 82.024C64.124 82.056 64.02 82.084 63.892 82.108C63.772 82.132 63.632 82.144 63.472 82.144ZM67.9081 82V74.152H72.6481V75.328H69.3001V77.548H72.1561V78.724H69.3001V82H67.9081ZM75.4464 82.144C74.8144 82.144 74.3544 81.94 74.0664 81.532C73.7784 81.124 73.6344 80.548 73.6344 79.804V76.108H75.0144V79.624C75.0144 80.112 75.0864 80.456 75.2304 80.656C75.3744 80.856 75.6064 80.956 75.9264 80.956C76.1824 80.956 76.4064 80.892 76.5984 80.764C76.7984 80.636 77.0104 80.428 77.2344 80.14V76.108H78.6144V82H77.4864L77.3784 81.136H77.3424C77.0864 81.44 76.8064 81.684 76.5024 81.868C76.1984 82.052 75.8464 82.144 75.4464 82.144ZM80.3623 82V76.108H81.5023L81.5983 76.9H81.6463C81.9103 76.644 82.1983 76.424 82.5103 76.24C82.8223 76.056 83.1783 75.964 83.5783 75.964C84.2103 75.964 84.6703 76.168 84.9583 76.576C85.2463 76.984 85.3903 77.56 85.3903 78.304V82H84.0103V78.484C84.0103 77.996 83.9383 77.652 83.7943 77.452C83.6503 77.252 83.4143 77.152 83.0863 77.152C82.8303 77.152 82.6023 77.216 82.4023 77.344C82.2103 77.464 81.9903 77.644 81.7423 77.884V82H80.3623ZM89.1412 82.144C88.4052 82.144 87.8172 81.872 87.3772 81.328C86.9372 80.784 86.7172 80.028 86.7172 79.06C86.7172 78.42 86.8332 77.868 87.0652 77.404C87.3052 76.94 87.6172 76.584 88.0012 76.336C88.3852 76.088 88.7892 75.964 89.2132 75.964C89.5492 75.964 89.8332 76.024 90.0652 76.144C90.3052 76.256 90.5372 76.412 90.7612 76.612L90.7132 75.664V73.528H92.0932V82H90.9532L90.8572 81.364H90.8092C90.5932 81.58 90.3412 81.764 90.0532 81.916C89.7652 82.068 89.4612 82.144 89.1412 82.144ZM89.4772 81.004C89.9172 81.004 90.3292 80.784 90.7132 80.344V77.596C90.5132 77.412 90.3132 77.284 90.1132 77.212C89.9132 77.14 89.7132 77.104 89.5132 77.104C89.1372 77.104 88.8132 77.276 88.5412 77.62C88.2772 77.956 88.1452 78.432 88.1452 79.048C88.1452 79.68 88.2612 80.164 88.4932 80.5C88.7252 80.836 89.0532 81.004 89.4772 81.004Z" fill="white" fill-opacity="0.7"/>
<defs>
<clipPath id="clip0_1246_14626">
<rect width="39" height="19.8613" fill="white" transform="translate(30 19.8613)"/>
</clipPath>
</defs>
</svg>
