<svg width="39" height="21" viewBox="0 0 39 21" fill="none" xmlns="http://www.w3.org/2000/svg">
<g clip-path="url(#clip0_1246_14628)">
<path d="M0 17.9576C0 18.9513 0 19.9015 0 20.8826C12.9786 20.8826 25.929 20.8826 38.9284 20.8826C38.9284 19.929 38.9284 18.9651 38.9284 17.9576C25.9767 17.9576 13.0116 17.9576 0 17.9576Z" fill="#30BAAB"/>
<path d="M-0.120138 0.980264C-0.104381 0.969782 -0.0874116 0.951147 -0.0716544 0.951147C2.67131 0.95697 5.42155 0.761301 8.15482 1.07111C10.9002 1.38209 13.1911 3.61947 13.6177 6.25169C13.905 8.02437 13.768 9.7423 12.8492 11.3216C11.5572 13.5439 9.39963 14.3871 6.89182 14.4733C4.69308 14.5478 2.48828 14.4896 0.287125 14.4884C0.0713725 14.4884 -0.197712 14.5444 -0.112865 14.1798C-0.0789269 14.1612 -0.0462004 14.1274 -0.0110497 14.1251C1.47255 14.0121 1.66164 13.8851 1.67255 12.4479C1.698 9.11103 1.66649 5.773 1.63861 2.43497C1.63255 1.69306 1.25922 1.42634 0.294398 1.36345C-0.101957 1.33666 -0.101957 1.33666 -0.120138 0.980264ZM4.78278 1.72917C4.78278 2.04829 4.78156 2.31734 4.78278 2.58638C4.79126 5.88248 4.79732 9.17858 4.81065 12.4747C4.81429 13.4356 5.10762 13.7104 6.11123 13.7361C7.96452 13.7838 9.3463 12.8276 9.85174 11.0607C10.4735 8.88974 10.4881 6.69312 9.84326 4.53027C9.4263 3.13496 8.67238 1.96211 6.95969 1.77575C6.2591 1.70005 5.55245 1.68957 4.78278 1.72917Z" fill="white"/>
<path d="M32.1194 8.31719C32.1194 9.94266 32.1015 11.5111 32.129 13.0783C32.1397 13.6664 32.509 13.9714 33.1806 14.0506C33.4937 14.0867 33.8104 14.0844 34.1319 14.0995C34.2418 14.3918 34.1474 14.4966 33.8475 14.4966C31.7573 14.4907 29.6672 14.4907 27.577 14.4966C27.3201 14.4977 27.1958 14.4232 27.2687 14.1438C27.3117 14.1263 27.3631 14.089 27.4169 14.0855C28.7661 13.9889 28.9943 13.8387 29.0123 12.5276C29.0565 9.23123 29.0493 5.9337 29.023 2.63734C29.0147 1.61734 28.7278 1.40659 27.6272 1.33672C27.2998 1.31577 27.2998 1.31577 27.2962 0.898917C29.0051 0.898917 30.714 0.891931 32.4229 0.901246C33.5559 0.907068 34.6912 0.843027 35.8169 1.03515C38.2166 1.44618 39.5777 3.4396 38.8977 5.63795C38.4173 7.1889 37.184 7.87938 35.6376 8.14486C34.4976 8.33931 33.3479 8.32767 32.1194 8.31719ZM32.111 7.43109C32.5915 7.54986 33.0432 7.49979 33.4937 7.46253C34.6577 7.36589 35.2935 6.82096 35.5588 5.72761C35.7643 4.8811 35.7189 4.03809 35.5134 3.20439C35.3353 2.48364 34.9326 1.93987 34.1271 1.78618C33.4638 1.65926 32.7994 1.68022 32.111 1.75008C32.111 3.64103 32.111 5.51103 32.111 7.43109Z" fill="white"/>
<path d="M15.2949 14.7659C15.2949 13.1833 15.2949 11.5972 15.2949 10.0041C15.459 9.89694 15.643 9.92954 15.8259 9.95982C16.3155 12.8514 18.7147 14.1044 21.0938 14.0136C21.7587 13.988 22.3598 13.7946 22.897 13.4441C24.1154 12.6499 23.9225 10.7529 22.5251 10.0879C21.0475 9.38454 19.4547 8.92804 17.9283 8.32481C15.6781 7.43627 14.6688 5.05829 15.752 3.07159C16.4206 1.8465 17.6202 1.24676 19.0327 0.990563C20.479 0.728543 21.8414 1.04064 23.1762 1.53091C23.4066 1.61592 23.6445 1.70442 23.8862 1.73703C24.2719 1.7906 24.6162 1.6986 24.6901 1.28286C24.7577 0.899729 24.9656 0.868287 25.33 0.998715C25.33 1.14079 25.33 1.27355 25.33 1.4063C25.33 2.64653 25.33 3.88793 25.33 5.11069C24.8329 5.35757 24.7465 5.04897 24.6526 4.7427C23.9952 2.61393 22.0893 1.43542 19.739 1.70209C18.5481 1.83718 17.649 2.58481 17.6127 3.48849C17.5777 4.36073 18.0285 4.95697 18.8662 5.31914C20.206 5.89792 21.6122 6.31832 22.9897 6.80742C25.7608 7.79145 26.9679 10.7645 25.3901 12.9224C24.2857 14.434 22.5739 14.88 20.6969 14.8718C19.6187 14.8672 18.6132 14.5504 17.6115 14.2127C16.6423 13.8866 16.5346 13.9286 15.9022 14.6867C15.7783 14.8381 15.7783 14.8381 15.2949 14.7659Z" fill="white"/>
</g>
<defs>
<clipPath id="clip0_1246_14628">
<rect width="39" height="19.8613" fill="white" transform="translate(0 0.861328)"/>
</clipPath>
</defs>
</svg>
