<?xml version="1.0" encoding="utf-8"?>
<!-- Generator: Adobe Illustrator 24.0.1, SVG Export Plug-In . SVG Version: 6.00 Build 0)  -->
<svg version="1.1" id="Layer_1" xmlns="http://www.w3.org/2000/svg" xmlns:xlink="http://www.w3.org/1999/xlink" x="0px" y="0px"
	 viewBox="0 0 7147.06 900" style="enable-background:new 0 0 7147.06 900;" xml:space="preserve">
<style type="text/css">
	.st0{fill:#2C435E;}
	.st1{fill:#F79307;}
	.st2{fill:#5BABE2;}
	.st3{fill:#2D4560;}
	.st4{fill:#0986D8;}
	.st5{fill:#0484D7;}
	.st6{fill:#5BAAE1;}
	.st7{fill:#FE3133;}
	.st8{fill:#0684D7;}
	.st9{fill:#2E4560;}
	.st10{font-family:'Boogaloo-Regular';}
	.st11{font-size:720px;}
</style>
<g>
	<path class="st0" d="M127.29,287.94c22.56-34.63,44.56-69.66,68.03-103.65c6.68-9.68,17.11-20.65,30.97-12.17
		c16.18,9.9,15.21,25.99,4.91,38.41c-82.4,99.29-54.28,218.29-58.31,331.33c-1.19,33.28,3.79,67.56-45.6,64.58
		C127.29,500.27,127.29,394.1,127.29,287.94z"/>
	<path class="st1" d="M397.49,849.1c0.07-44.89-0.33-89.79,0.46-134.66c0.28-15.76,6.18-30.79,25.42-28.32
		c14.24,1.83,18.68,15.16,18.81,28.32c0.43,44.89,0.28,89.78,0.35,134.67C427.51,849.1,412.5,849.1,397.49,849.1z"/>
	<path class="st2" d="M307.78,546.25c0-60.38-3.56-121.04,1.01-181.07c4.5-59.09,40.54-98.32,99.08-106.1
		c56.31-7.48,94.38,23.73,116.79,74.82c8.3,18.91,16.47,43.31-3.8,54.71c-27.82,15.64-29.6-12.46-36.58-30.79
		c-13.9-36.48-38.63-61.14-79.8-49.63c-38.84,10.86-52.18,42.53-52.02,81.81c0.45,108.19,0.56,216.38-0.33,324.57
		c-0.17,20.62,8.59,54.51-23.11,53.35c-30.07-1.1-20.88-34.61-21.29-55.61c-1.08-55.33-0.37-110.7-0.37-166.05
		C307.49,546.25,307.64,546.25,307.78,546.25z"/>
	<path class="st3" d="M416.25,75.45c149.98,0.16,280.62,117.72,294.62,262.75c2,20.67,12.77,51.75-19.59,55.3
		c-28.91,3.17-21.38-26.78-24.8-45.13C634.8,178.28,514.37,98.61,344.77,134.68c-17.46,3.71-42.37,20.75-50.42-8.74
		c-7.45-27.29,19.91-29.52,37.93-35.8C360.73,80.25,389.76,73.29,416.25,75.45z"/>
	<path class="st4" d="M217.1,372.67c2.65-155.07,160.61-253.74,293.06-184.56c19.12,9.99,49.28,20.75,36.25,47.61
		c-11.8,24.33-33.91,2.89-51.46-4.47c-120.85-50.69-223.28,13.15-232.45,144.11c-1.48,21.08,8.94,55.93-21.3,55.61
		C204.72,430.59,221.56,392.92,217.1,372.67z"/>
	<path class="st5" d="M622.72,478.97c0,62.15,0.14,110.03-0.08,157.92c-0.08,17.54,1.55,40.15-21.08,41.79
		c-24.01,1.73-22.98-20.91-23.93-38.44c-5.92-110.31,12.07-221.43-11.21-331.17c-3.28-15.48,7.14-25.75,19.7-26.49
		c18.27-1.08,23.35,16.03,27.86,30.39C632.61,372.21,616.83,433.27,622.72,478.97z"/>
	<path class="st6" d="M532.53,609.65c-0.03,40.3,0.36,80.61-0.21,120.9c-0.24,17.38,0.34,39.25-24.19,38.17
		c-18.44-0.81-20.25-19.32-20.28-34.81c-0.18-83.12-0.07-166.23-0.15-249.35c-0.01-16.02,2.5-33.91,20.83-34.24
		c23.68-0.43,23.96,20.46,24.01,38.44C532.63,529.05,532.56,569.35,532.53,609.65z"/>
	<path class="st7" d="M442.29,492.47c0.01,35.09,0.03,70.17,0,105.25c-0.01,15.86-3.05,33.2-20.49,34.9
		c-18.07,1.76-23.77-14.73-23.84-30.7c-0.33-72.67-0.31-145.35-0.02-218.02c0.06-15.98,5.49-32.72,23.47-31.3
		c17.33,1.37,20.84,18.67,20.86,34.61C442.31,422.31,442.28,457.39,442.29,492.47z"/>
	<path class="st8" d="M214.62,581.05c14.02-30.95-18.16-90.97,22.69-90.64c48.49,0.4,21.9,60.35,23.24,92.84
		c1.29,31.47,20.17,91.77-18.09,91.06C193.67,673.39,228.99,612.93,214.62,581.05z"/>
	<path class="st9" d="M712.96,527.35c-7.65,23.24,16.53,73.62-20.94,73.14c-45.32-0.58-16.99-52.02-24.19-80.31
		c-2.4-9.42-0.25-20-0.37-30.05c-0.21-17.87-1.11-40.96,21.02-41.37c27.97-0.52,23.95,25.55,24.44,45.06
		C713.16,503.86,712.96,513.91,712.96,527.35z"/>
	<text transform="matrix(1 0 0 1 958.2496 663)" class="st4 st10 st11">outshade</text>
</g>
</svg>
