<?xml version="1.0" encoding="utf-8"?>
<!-- Generator: Adobe Illustrator 28.1.0, SVG Export Plug-In . SVG Version: 6.00 Build 0)  -->
<svg version="1.1" id="Layer_1" xmlns="http://www.w3.org/2000/svg" xmlns:xlink="http://www.w3.org/1999/xlink" x="0px" y="0px"
	 viewBox="0 0 1280 364" style="enable-background:new 0 0 1280 364;" xml:space="preserve">
<style type="text/css">
	.st0{fill:#FFFFFF;}
</style>
<g>
	<g>
		<g>
			<path class="st0" d="M394.67,88.98l33.71-0.01c18.86,0,29.45,13.81,29.45,28.28c0,14.34-10.33,27.51-29.7,27.51l-18.21,0
				l0.01,32.03l-15.24,0L394.67,88.98z M426.45,131.73c11.11,0,16.01-7.11,16.01-14.6c0-8.27-5.94-14.85-15.63-14.85l-16.92,0
				l0.01,29.45L426.45,131.73z"/>
			<path class="st0" d="M541.02,176.39v0.39l-17.31,0l-20.67-33.32l-13.3,0l0.01,33.32l-15.24,0l-0.02-87.83l34.49-0.01
				c17.44,0,29.84,11.75,29.84,27.38c0,12.27-7.75,21.83-20.27,25.45L541.02,176.39z M507.43,130.81c10.07,0,16.01-5.56,16.01-14.21
				c0-8.27-6.33-14.46-15.76-14.46l-17.95,0l0.01,28.67L507.43,130.81z"/>
			<path class="st0" d="M552.25,132.73c-0.01-26.35,18.85-45.47,45.71-45.47c27.12,0,45.73,19.11,45.73,45.46
				c0,25.7-18.59,45.73-45.71,45.73C571.11,178.45,552.25,158.44,552.25,132.73z M628.19,132.72c0-18.21-11.76-31.64-30.23-31.64
				c-18.34,0-30.09,13.44-30.09,31.65c0,17.7,11.76,31.9,30.1,31.9C616.45,164.63,628.2,150.42,628.19,132.72z"/>
			<path class="st0" d="M756.07,176.74l-14.98,0l-6.98-47.53c-0.39-3.1-0.78-5.94-1.03-8.91c-1.55,2.84-3.36,5.55-5.16,8.27
				l-20.01,30.48l-3.1,0l-19.9-30.48c-1.94-2.71-3.75-5.55-5.43-8.52c-0.13,3.36-0.64,6.2-1.03,9.3l-6.71,47.4l-14.98,0l12.9-88.47
				h4.52l26.48,40.55c1.94,2.97,3.88,6.07,5.68,9.17c1.81-3.1,3.74-6.2,5.68-9.17l26.6-40.56h4.52L756.07,176.74z"/>
			<path class="st0" d="M768.97,132.69c-0.01-26.35,18.85-45.47,45.71-45.47c27.12,0,45.73,19.11,45.73,45.46
				c0.01,25.7-18.59,45.73-45.71,45.73C787.84,178.41,768.98,158.4,768.97,132.69z M844.92,132.68c0-18.21-11.76-31.64-30.23-31.64
				c-18.34,0-30.09,13.44-30.09,31.65c0,17.7,11.76,31.9,30.1,31.9C833.17,164.59,844.92,150.38,844.92,132.68z"/>
			<path class="st0" d="M909.36,88.89l31.38-0.01c26.61,0,44.82,18.46,44.83,44.03c0,25.44-17.69,43.79-44.68,43.79l-31.51,0.01
				L909.36,88.89z M940.24,163.53c18.47,0,29.83-12.79,29.83-30.62c0-17.82-11.5-30.86-29.97-30.86l-15.5,0l0.01,61.48
				L940.24,163.53z"/>
			<path class="st0" d="M1000.03,132.65c0-26.35,18.85-45.47,45.71-45.47c27.12-0.01,45.72,19.11,45.73,45.45
				c0.01,25.7-18.59,45.73-45.71,45.73C1018.9,178.37,1000.04,158.35,1000.03,132.65z M1075.98,132.64
				c0-18.21-11.76-31.64-30.23-31.64c-18.34,0-30.09,13.44-30.09,31.65c0,17.7,11.76,31.9,30.1,31.9
				C1064.23,164.54,1075.98,150.33,1075.98,132.64z"/>
			<path class="st0" d="M1203.85,176.66l-14.98,0l-6.98-47.53c-0.39-3.1-0.78-5.94-1.03-8.91c-1.55,2.84-3.36,5.55-5.17,8.27
				l-20.01,30.48l-3.1,0l-19.9-30.48c-1.94-2.71-3.75-5.55-5.43-8.52c-0.13,3.36-0.64,6.2-1.03,9.3l-6.71,47.4l-14.98,0l12.9-88.48
				h4.52l26.49,40.55c1.94,2.97,3.88,6.07,5.68,9.17c1.81-3.1,3.74-6.2,5.68-9.17l26.6-40.56h4.52L1203.85,176.66z"/>
			<path class="st0" d="M1279.01,163.21l0,13.43l-56.44,0.01l-0.02-87.83l55.28-0.01l0,13.43l-40.04,0.01l0.01,23.25l35-0.01
				l0,13.04l-35,0.01l0.01,24.67L1279.01,163.21z"/>
		</g>
		<g>
			<path class="st0" d="M395.57,226.76h17.55c14.88,0,25.07,10.33,25.07,24.63c0,14.23-9.9,24.49-24.99,24.49h-17.63V226.76z
				 M412.83,268.51c10.33,0,16.69-7.15,16.69-17.12c0-9.97-6.43-17.26-16.76-17.26h-8.67v34.38H412.83z"/>
			<path class="st0" d="M495.18,226.76h8.52v49.12h-8.52V226.76z"/>
			<path class="st0" d="M597.89,248.36v19.43c-4.84,5.85-11.85,9.03-20.37,9.03c-15.1,0-25.5-10.98-25.5-25.57
				c0-14.23,9.97-25.43,25.64-25.43c7.87,0,14.23,2.96,19,7.87l-4.69,5.63c-3.97-3.9-8.38-5.85-14.01-5.85
				c-10.55,0-17.26,7.44-17.26,17.84c0,10.76,7.15,17.91,17.55,17.91c4.84,0,9.03-1.59,12.06-4.7v-9.1h-13.15v-7.08H597.89z"/>
			<path class="st0" d="M649.47,226.76h8.52v49.12h-8.52V226.76z"/>
			<path class="st0" d="M743.59,234.63h-13.87v41.25h-8.52v-41.25h-13.94v-7.87h36.33V234.63z"/>
			<path class="st0" d="M831.79,275.66v0.22h-8.89l-4.05-8.89h-22.97l-4.05,8.89h-8.96v-0.14l23.19-49.27h2.6L831.79,275.66z
				 M804.05,248.58l-5.35,11.7h17.34l-5.34-11.7c-1.16-2.6-2.17-5.2-3.32-8.38C806.22,243.37,805.2,245.9,804.05,248.58z"/>
			<path class="st0" d="M881.48,226.76h8.52v41.25h21.31v7.87h-29.83V226.76z"/>
			<path class="st0" d="M1062.5,226.76h8.52v41.25h21.31v7.87h-29.83V226.76z"/>
			<path class="st0" d="M1153.59,226.76h8.52v41.25h21.31v7.87h-29.83V226.76z"/>
			<path class="st0" d="M1244.68,226.76h18.85c10.55,0,16.47,7.73,16.47,15.82c0,8.02-5.78,15.39-16.61,15.39h-10.18v17.91h-8.52
				V226.76z M1262.45,250.67c6.21,0,8.96-3.97,8.96-8.16c0-4.62-3.32-8.31-8.74-8.31h-9.46v16.47H1262.45z"/>
		</g>
	</g>
	<g>
		<g>
			<g>
				<ellipse class="st0" cx="117.35" cy="280.96" rx="24.66" ry="19.43"/>
				
					<ellipse transform="matrix(0.4998 -0.8661 0.8661 0.4998 -124.4541 95.2447)" class="st0" cx="20.24" cy="155.38" rx="19.04" ry="7.83"/>
				
					<ellipse transform="matrix(0.9005 -0.4349 0.4349 0.9005 -26.5523 48.2211)" class="st0" cx="92.09" cy="82.13" rx="19.1" ry="6.58"/>
				
					<ellipse transform="matrix(0.4015 -0.9159 0.9159 0.4015 63.0342 259.6429)" class="st0" cx="230.17" cy="81.6" rx="6.25" ry="19.31"/>
				
					<ellipse transform="matrix(0.8726 -0.4884 0.4884 0.8726 -37.3695 168.5782)" class="st0" cx="304.49" cy="155.93" rx="8.49" ry="19.21"/>
				<ellipse class="st0" cx="206.52" cy="280.95" rx="24.66" ry="19.43"/>
				
					<ellipse transform="matrix(0.3213 -0.947 0.947 0.3213 -146.1057 176.8759)" class="st0" cx="50.35" cy="190.37" rx="21.74" ry="15.31"/>
				<path class="st0" d="M260.26,161.41c-2.2,1.95-4.92,3.04-7.87,3.32c-1.35,0.14-2.74,0.1-4.16-0.11
					c-13.55,0.59-16.85,10.87-17.46,18.2c0.42,2.44,0.47,4.9,0.14,7.29c-0.8,5.91-3.83,11.39-8.91,15.04
					c-10.15,7.3-24.61,4.54-32.31-6.17c-2.67-3.71-4.17-7.88-4.56-12.06c-0.01-0.01-0.01-0.01-0.01-0.02
					c-0.14-1.42-0.15-2.84-0.03-4.25c-0.46-7.08-3.25-20.44-17.7-20.31c-0.01,0-0.01,0-0.01,0c-7.03,0.42-14.03-2.56-18.35-8.57
					c-0.56-0.78-1.06-1.59-1.49-2.42c-2.32-4.38-2.9-9.35-1.91-14.05c-3.82-14.02-12.28-16.63-17.41-16.84
					c-2.36-0.1-4.02,0.31-4.2,0.36c-0.01,0.01-0.01,0.01-0.01,0.01c-7.05,0.04-12.91-2.88-14.73-7.99
					c-2.58-7.28,4-16.25,14.69-20.05c10.7-3.79,21.47-0.97,24.05,6.31c0.47,1.33,0.64,2.73,0.52,4.13v0.02
					c0.42,13.54,11.59,16.7,13.45,17.13c8.3-2.1,17.27,0.77,22.43,7.94c1.68,2.34,2.8,4.92,3.39,7.6c0,0.01,0,0.04,0.01,0.06
					c0.02,0.31,0.14,1.56,0.44,3.37c1.15,6.8,5.01,21.43,17.05,22.9c0.65-0.02,1.4,0,2.25,0.06c0.03,0,0.06,0.01,0.09,0.01
					c0.33,0.03,0.66,0.05,0.98,0.06c0.01,0.01,0.01,0.01,0.02,0c13.54,0.55,17.3-10.92,18.28-19.03c-0.47-2.72-0.39-5.39,0.25-7.8
					c0.68-2.64,2.04-4.98,4.06-6.78c6.88-6.12,18.95-3.77,26.96,5.24C266.22,143.03,267.14,155.29,260.26,161.41z"/>
			</g>
			<g>
				<g>
					<g>
						
							<ellipse transform="matrix(0.7354 -0.6777 0.6777 0.7354 -63.2355 67.1707)" class="st0" cx="54.39" cy="114.55" rx="19.44" ry="9.48"/>
					</g>
					<g>
						<ellipse class="st0" cx="166.58" cy="72.99" rx="20.22" ry="9.38"/>
					</g>
					<g>
						
							<ellipse transform="matrix(0.707 -0.7072 0.7072 0.707 -1.6309 225.4188)" class="st0" cx="271.22" cy="114.68" rx="9.75" ry="19.97"/>
					</g>
					<g>
						<ellipse class="st0" cx="313.2" cy="234.56" rx="11.31" ry="20.35"/>
					</g>
					<g>
						<ellipse class="st0" cx="81.57" cy="233.5" rx="19.57" ry="22.65"/>
					</g>
					<g>
						<path class="st0" d="M291.08,209.45c0,0-2.09,0.05-4.97,0.72c-6.31,1.46-16.39,5.88-16.58,19.19
							c-0.03,1.57,0.09,3.26,0.36,5.08c0.01,0.04,0,0.07-0.01,0.11c-0.37,12.14-9.22,21.84-20.09,21.84
							c-11.11,0-20.12-10.13-20.12-22.64c0-12.5,9-22.65,20.11-22.65c0.56,0,1.11,0.03,1.66,0.08c0.65-0.09,15.57-2.38,16.72-20.36
							c0.16-2.39,0.06-5.05-0.34-8.02c0-0.01,0.01-0.01,0.01-0.01c0.73-5.66,3.58-10.25,8.13-12.03c7.71-3.01,17.34,3.21,21.51,13.9
							C301.66,195.34,298.79,206.44,291.08,209.45z"/>
					</g>
					<g>
						<ellipse class="st0" cx="11.31" cy="234.62" rx="11.31" ry="20.35"/>
					</g>
					<g>
						<path class="st0" d="M190.45,234.54c0,13.09-10.84,23.72-24.22,23.72c-13.38,0-24.22-10.62-24.22-23.71
							c0.11-1.01,0.17-1.99,0.18-2.93c0.26-14-8.78-20.15-16.73-22.85c-0.67,0.06-1.35,0.09-2.03,0.09c-3.46,0-6.74-0.8-9.67-2.22
							c-0.01,0-0.01,0-0.01,0c-5.45-2.65-9.69-7.47-11.66-13.36c0-0.01-0.01-0.01-0.01-0.01c-0.78-2.33-1.21-4.83-1.21-7.43
							c0-1.35,0.11-2.68,0.33-3.97c-1.39-6.36-4.71-13.7-12.47-17.19c-5.45,1.95-11.13,1.51-15.38-1.74
							c-7.53-5.75-7.72-18.15-0.43-27.68c7.29-9.54,19.31-12.61,26.84-6.85c7.02,5.37,7.67,16.52,1.79,25.73
							c0.83,5.69,4.64,11.54,17.65,9.07c0.48-0.09,0.93-0.16,1.35-0.22c0.56-0.07,1.13-0.13,1.71-0.16
							c0.09-0.01,0.17-0.01,0.26-0.01c0.3-0.01,0.61-0.02,0.91-0.02c10.98,0,20.14,8.02,22.15,18.63c0.27,1.43,0.41,2.9,0.41,4.4
							c-0.06,0.73-0.09,1.44-0.09,2.12c-0.15,19.16,20.33,22.87,20.33,22.87C179.59,210.82,190.45,221.44,190.45,234.54z"/>
					</g>
					<g>
						
							<ellipse transform="matrix(0.3213 -0.947 0.947 0.3213 38.064 266.4549)" class="st0" cx="204.93" cy="106.67" rx="14.5" ry="20.89"/>
					</g>
				</g>
			</g>
		</g>
	</g>
</g>
</svg>
