<?xml version="1.0" encoding="utf-8"?>
<!-- Generator: Adobe Illustrator 24.0.1, SVG Export Plug-In . SVG Version: 6.00 Build 0)  -->
<svg version="1.1" id="Layer_1" xmlns="http://www.w3.org/2000/svg" xmlns:xlink="http://www.w3.org/1999/xlink" x="0px" y="0px"
	 viewBox="0 0 132 31" style="enable-background:new 0 0 132 31;" xml:space="preserve">
<style type="text/css">
	.st0{fill:#FFFFFF;}
	.st1{fill:#111827;}
	.st2{font-family:'Montserrat-Black';}
	.st3{font-size:14px;}
</style>
<g>
	<path class="st0" d="M100.4,11.6c0.2,0,0.3,0,0.5,0.1c0.3,0.1,0.5,0.1,0.6-0.3c0.1-0.3,0-0.5-0.2-0.7c-0.3-0.2-0.5-0.5-0.7-0.7
		c-0.3-0.3-0.4-0.5-0.1-0.9c0.2-0.4,0.6-0.4,0.9-0.3c0.4,0.1,0.7,0.1,1.1,0.3c0.2,0.1,0.4,0.1,0.5-0.1c0.1-0.2,0.4-0.4,0.1-0.7
		c-0.3-0.4-0.6-0.8-0.7-1.3c-0.1-0.3,0-0.4,0.2-0.6c0.2-0.2,0.3-0.4,0.7-0.3c0.5,0.2,0.9,0.4,1.3,0.7c0.2,0.2,0.3,0.2,0.5,0
		c0.2-0.2,0.4-0.3,0.2-0.6c-0.2-0.4-0.3-0.9-0.4-1.4c-0.1-0.4,0.2-0.5,0.4-0.6c0.2-0.1,0.4-0.2,0.7,0c0.3,0.3,0.6,0.5,0.9,0.9
		c0.2,0.2,0.3,0.4,0.7,0.3c0.4-0.2,0.4-0.4,0.3-0.7c0-0.3,0-0.6,0-1c0-0.4,0.2-0.6,0.6-0.8c0.5-0.1,0.6,0.1,0.8,0.4
		c0.2,0.3,0.4,0.6,0.5,0.9c0.1,0.3,0.3,0.4,0.6,0.3c0.3,0,0.5-0.1,0.5-0.4c0-0.4,0.1-0.8,0.3-1.1c0.1-0.3,0.3-0.5,0.7-0.5
		c0.4,0,0.6,0.2,0.7,0.5c0.1,0.4,0.3,0.7,0.3,1.1c0,0.4,0.2,0.4,0.5,0.4c0.3,0,0.4,0,0.5-0.3c0.1-0.4,0.3-0.7,0.5-1
		c0.2-0.3,0.3-0.5,0.8-0.4c0.4,0.1,0.6,0.3,0.6,0.7c0,0.4,0.1,0.8,0,1.2c-0.1,0.3,0.1,0.4,0.3,0.5c0.2,0.1,0.4,0.2,0.6-0.1
		c0.3-0.4,0.6-0.7,1-1c0.3-0.2,0.5-0.1,0.7,0.1c0.2,0.1,0.4,0.3,0.3,0.6c-0.1,0.5-0.1,1-0.4,1.4c-0.2,0.3,0,0.4,0.2,0.5
		c0.2,0.1,0.3,0.3,0.6,0.1c0.3-0.3,0.7-0.5,1-0.7c0.4-0.2,0.7-0.1,1,0.2c0.2,0.2,0.2,0.3,0.1,0.6c-0.2,0.4-0.4,0.9-0.7,1.2
		c-0.3,0.3-0.1,0.4,0,0.6c0.2,0.2,0.3,0.4,0.6,0.2c0.3-0.2,0.7-0.3,1.1-0.3c0.3-0.1,0.6-0.1,0.9,0.3c0.2,0.4,0.1,0.7-0.1,1
		c-0.2,0.3-0.5,0.5-0.8,0.7c-0.2,0.2-0.4,0.3-0.2,0.6c0.1,0.3,0.3,0.4,0.6,0.3c0.4-0.1,0.9-0.1,1.3,0c0.3,0,0.4,0.2,0.4,0.4
		c0,0.3,0.2,0.5-0.1,0.7c-0.4,0.3-0.8,0.6-1.3,0.7c-0.3,0.1-0.3,0.3-0.3,0.5c0,0.2,0,0.5,0.4,0.5c0.4,0,0.8,0.1,1.1,0.3
		c0.4,0.1,0.6,0.3,0.6,0.8c0,0.5-0.3,0.6-0.6,0.7c-0.3,0.1-0.7,0.3-1,0.2c-0.3,0-0.4,0.2-0.5,0.5c0,0.3,0,0.4,0.3,0.5
		c0.4,0.1,0.7,0.3,1,0.5c0.3,0.2,0.5,0.4,0.4,0.8c-0.1,0.4-0.4,0.5-0.7,0.6c-0.4,0-0.7,0-1.1,0c-0.3-0.1-0.5,0-0.6,0.3
		c-0.1,0.3,0,0.5,0.2,0.6c0.3,0.2,0.5,0.5,0.8,0.8c0.2,0.3,0.3,0.5,0.1,0.9c-0.2,0.4-0.5,0.4-0.9,0.3c-0.4-0.1-0.7-0.1-1.1-0.3
		c-0.3-0.1-0.4-0.1-0.6,0.2c-0.1,0.2-0.4,0.4,0,0.6c0.3,0.3,0.4,0.6,0.6,1c0.2,0.4,0.1,0.6-0.2,1c-0.3,0.3-0.6,0.2-0.9,0
		c-0.4-0.2-0.7-0.3-1-0.6c-0.2-0.2-0.3-0.2-0.5,0c-0.2,0.2-0.4,0.2-0.2,0.6c0.2,0.4,0.3,0.9,0.4,1.4c0,0.4-0.2,0.5-0.4,0.6
		c-0.2,0.1-0.4,0.2-0.6,0c-0.4-0.3-0.8-0.6-1-1c-0.2-0.3-0.4-0.2-0.6-0.1c-0.3,0.1-0.4,0.2-0.3,0.5c0.1,0.4,0.1,0.7,0.1,1.1
		c0,0.4-0.1,0.7-0.6,0.8c-0.5,0.1-0.7-0.1-0.9-0.4c-0.2-0.3-0.4-0.6-0.5-1c-0.1-0.3-0.3-0.3-0.5-0.3c-0.2,0-0.4,0-0.4,0.4
		c0,0.4-0.1,0.8-0.3,1.2c-0.1,0.4-0.4,0.5-0.8,0.5c-0.4,0-0.5-0.3-0.7-0.6c-0.1-0.4-0.3-0.8-0.3-1.1c0-0.3-0.2-0.4-0.4-0.4
		c-0.2,0-0.5-0.1-0.6,0.2c-0.1,0.4-0.3,0.7-0.5,1c-0.2,0.3-0.3,0.6-0.8,0.4c-0.5-0.1-0.6-0.4-0.6-0.8c0-0.3,0-0.7,0-1
		c0.1-0.3,0-0.5-0.3-0.6c-0.3-0.1-0.4,0-0.6,0.2c-0.2,0.3-0.5,0.5-0.7,0.7c-0.3,0.4-0.7,0.4-1.1,0.1c-0.2-0.1-0.3-0.3-0.2-0.5
		c0.1-0.5,0.1-1,0.4-1.4c0.2-0.3,0-0.4-0.2-0.6c-0.2-0.1-0.4-0.3-0.6-0.1c-0.3,0.3-0.7,0.4-1,0.6c-0.4,0.2-0.7,0.1-1-0.2
		c-0.1-0.2-0.2-0.3-0.1-0.5c0.2-0.4,0.4-0.9,0.7-1.2c0.2-0.2,0.2-0.4,0-0.6c-0.2-0.2-0.3-0.4-0.6-0.2c-0.3,0.2-0.7,0.3-1.1,0.3
		c-0.3,0.1-0.6,0.1-0.9-0.3c-0.2-0.4-0.1-0.7,0.1-0.9c0.2-0.3,0.5-0.5,0.8-0.7c0.2-0.1,0.4-0.3,0.2-0.6c-0.1-0.3-0.2-0.5-0.6-0.4
		c-0.3,0.1-0.7,0.1-1.1,0c-0.3,0-0.6-0.1-0.8-0.5c-0.1-0.5,0.1-0.7,0.4-0.9c0.3-0.2,0.6-0.4,1-0.5c0.4-0.1,0.3-0.4,0.3-0.6
		c0-0.3-0.2-0.4-0.4-0.4c-0.4,0-0.7-0.1-1.1-0.2c-0.5-0.1-0.7-0.4-0.6-0.9c0-0.3,0.1-0.4,0.4-0.5c0.4-0.2,0.9-0.3,1.3-0.3
		c0.3,0,0.4-0.1,0.4-0.4c0-0.3,0.1-0.5-0.3-0.6c-0.3-0.1-0.6-0.2-0.9-0.4c-0.3-0.2-0.7-0.4-0.5-0.9c0.1-0.6,0.5-0.5,0.9-0.6
		C100.2,11.6,100.3,11.6,100.4,11.6C100.4,11.6,100.4,11.6,100.4,11.6z"/>
	<path class="st1" d="M111,25.8c-3.8-0.2-6.9-2.3-8.8-6.2c-0.2-0.4-0.1-0.6,0.3-0.8c0.3-0.1,0.7-0.2,1-0.3c0.4-0.2,0.6-0.1,0.8,0.3
		c0.8,1.8,2.1,3.2,3.9,4c4,1.9,8.9,0.2,10.8-3.9c0.3-0.6,0.3-0.6,0.9-0.4c0.3,0.1,0.6,0.2,0.9,0.3c0.4,0.1,0.5,0.3,0.3,0.7
		c-1.2,2.7-3.2,4.6-5.9,5.7C114.1,25.6,112.9,25.8,111,25.8z"/>
	<path class="st1" d="M101.4,15.5c0-2.5,0.8-4.7,2.4-6.6c0.5-0.5,0.5-0.5,1-0.1c0.2,0.2,0.5,0.5,0.7,0.7c0.3,0.3,0.3,0.5,0,0.8
		c-1.2,1.3-1.8,2.9-1.9,4.7c0,0.6,0,1.2,0.1,1.8c0.1,0.4,0,0.7-0.5,0.8c-0.3,0.1-0.7,0.2-1,0.3c-0.5,0.2-0.6,0-0.7-0.4
		C101.5,16.9,101.4,16.2,101.4,15.5z"/>
	<path class="st1" d="M122,15.5c0,0.7,0,1.4-0.2,2.1c-0.1,0.3-0.2,0.5-0.6,0.3c-0.4-0.1-0.8-0.2-1.1-0.3c-0.4-0.1-0.5-0.3-0.4-0.7
		c0.3-1.5,0.2-2.9-0.4-4.4c-0.3-0.9-0.8-1.6-1.4-2.3c-0.3-0.3-0.3-0.5,0-0.8c0.3-0.2,0.5-0.5,0.8-0.8c0.3-0.3,0.5-0.4,0.8,0
		c1.5,1.7,2.3,3.7,2.5,5.9C122,15,122,15.2,122,15.5z"/>
	<path class="st1" d="M111.4,5.2c2.6,0,4.7,0.8,6.6,2.1c0.3,0.2,0.4,0.5,0.1,0.8c-0.2,0.2-0.5,0.5-0.7,0.8c-0.3,0.4-0.5,0.4-0.9,0.1
		c-1.6-1.2-3.4-1.7-5.3-1.6c-1.5,0.1-2.9,0.6-4.2,1.5c-0.6,0.4-0.6,0.4-1-0.1c-0.2-0.2-0.4-0.5-0.6-0.7c-0.4-0.3-0.3-0.5,0.1-0.8
		C107.3,6,109.4,5.2,111.4,5.2z"/>
	<path class="st1" d="M119,15.6c0,0.7-0.1,1.5-0.4,2.2c-0.1,0.3-0.2,0.4-0.5,0.2c-1.1-0.7-2.2-1.5-3.2-2.2c-0.3-0.2-0.3-0.5,0-0.7
		c1.1-0.7,2.2-1.5,3.2-2.2c0.3-0.2,0.5-0.1,0.5,0.2C118.9,13.9,119,14.7,119,15.6z"/>
	<path class="st1" d="M110.7,22c0,0.1,0,0.3,0,0.4c0,0.3-0.1,0.4-0.5,0.4c-1.5-0.4-2.8-1.1-3.9-2.2c-0.4-0.4-0.4-0.5,0.1-0.7
		c1.1-0.5,2.2-1.1,3.2-1.6c0.5-0.3,0.7-0.2,0.7,0.4C110.6,19.7,110.6,20.9,110.7,22z"/>
	<path class="st1" d="M110.7,8.6c-0.1,1.5-0.2,2.7-0.3,4c0,0.4-0.2,0.5-0.6,0.4c-1.2-0.6-2.4-1.1-3.6-1.7c-0.3-0.1-0.3-0.3-0.1-0.5
		c1.1-1.2,2.5-2,4.2-2.4C110.6,8.2,110.7,8.3,110.7,8.6z"/>
	<path class="st1" d="M112.8,21.9c0.1-1.1,0.1-2.2,0.2-3.3c0-0.6,0.2-0.7,0.8-0.5c1.1,0.5,2.2,1,3.2,1.6c0.5,0.2,0.5,0.3,0.1,0.7
		c-1,1-2.2,1.7-3.6,2.1C112.7,22.8,112.7,22.8,112.8,21.9z"/>
	<path class="st1" d="M104.4,15.6c0-0.9,0.1-1.7,0.3-2.4c0.1-0.4,0.2-0.5,0.6-0.2c1.1,0.7,2.1,1.4,3.2,2.2c0.3,0.2,0.4,0.5,0,0.7
		c-1.1,0.7-2.1,1.4-3.2,2.2c-0.3,0.2-0.5,0.2-0.6-0.2C104.5,17,104.4,16.3,104.4,15.6z"/>
	<path class="st1" d="M112.7,9c0-0.9,0-0.9,0.8-0.7c1.4,0.4,2.6,1.2,3.6,2.2c0.3,0.3,0.2,0.4-0.1,0.6c-1.1,0.5-2.3,1.1-3.4,1.6
		c-0.5,0.2-0.6,0.1-0.7-0.4C112.9,11.3,112.8,10.2,112.7,9z"/>
	<path class="st0" d="M111.7,18.1c-1.4,0-2.5-1.2-2.5-2.6c0-1.4,1.2-2.6,2.6-2.6c1.4,0,2.6,1.2,2.6,2.6
		C114.2,17,113.1,18.1,111.7,18.1z"/>
	<path class="st0" d="M93.6,24.3c-0.2,0.2-0.1,0.5-0.2,0.6c0,0.1-0.1,0.2-0.2,0.2C93.1,25,93,25,93,24.9c0.1-0.4,0.2-0.9,0.3-1.3
		c0.1-0.3,0.3-0.1,0.4,0c0.1,0.2,0.2,0.5,0.4,0.9c0.1-0.3,0.1-0.5,0.1-0.7c0-0.1,0.1-0.2,0.2-0.2c0.2,0,0.1,0.1,0.1,0.2
		c0,0.4-0.1,0.8-0.1,1.2c0,0.1,0,0.3-0.2,0.3c-0.1,0-0.3,0-0.3-0.2C93.8,24.8,93.7,24.6,93.6,24.3z"/>
	<path class="st0" d="M104.3,20.9c-0.3,0.2-0.5,0.3-0.6,0.4c-0.1,0.1-0.2,0-0.3-0.1c-0.1-0.1-0.1-0.2,0.1-0.3c0.3-0.2,0.7-0.5,1-0.7
		c0.1-0.1,0.2-0.2,0.3-0.1c0.1,0.1,0.1,0.2,0.1,0.3c-0.1,0.3-0.2,0.5-0.3,0.9c0.2-0.2,0.4-0.3,0.5-0.4c0.1-0.1,0.2-0.1,0.3,0
		c0.1,0.1,0,0.2-0.1,0.3c-0.3,0.2-0.6,0.5-0.9,0.7c-0.1,0.1-0.2,0.2-0.3,0.1c-0.1-0.1-0.2-0.2-0.1-0.4
		C104.1,21.5,104.2,21.2,104.3,20.9z"/>
	<path class="st0" d="M101,22.3c0.2,0.3,0.3,0.4,0.5,0.6c0.1,0.1,0.1,0.2,0,0.3c-0.1,0.1-0.2,0.1-0.3,0c-0.3-0.3-0.5-0.7-0.8-1
		c-0.2-0.3,0-0.3,0.2-0.3c0.3,0,0.5,0.1,0.8,0.2c0-0.2-0.2-0.3-0.4-0.5c-0.1-0.1-0.1-0.2,0-0.3c0.1-0.1,0.2,0,0.3,0
		c0.3,0.3,0.6,0.6,0.8,0.9c0.1,0.1,0.2,0.1,0.1,0.3c-0.1,0.1-0.2,0.2-0.3,0.1C101.6,22.5,101.4,22.4,101,22.3z"/>
	<path class="st0" d="M92.5,24.9c-0.4,0-0.4-0.2-0.4-0.5c0-0.2,0-0.3-0.2-0.4c-0.2,0-0.2,0.2-0.2,0.3c-0.1,0.1-0.1,0.3-0.3,0.3
		c-0.3-0.1-0.1-0.3,0-0.4c0.1-0.3,0.2-0.5,0.3-0.8c0.1-0.1,0-0.5,0.4-0.4c0.3,0.1,0.8,0.1,0.8,0.6c0,0.1,0,0.2-0.1,0.3
		C92.4,24.1,92.5,24.5,92.5,24.9z"/>
	<path class="st0" d="M99.7,24.1c-0.5,0-0.9-0.4-0.8-0.9c0-0.4,0.4-0.8,0.9-0.8c0.5,0,0.8,0.4,0.8,0.8
		C100.5,23.8,100.1,24.2,99.7,24.1z"/>
	<path class="st0" d="M90.7,22.7c0,0-0.1,0.1-0.1,0.2c0,0.1,0,0.1,0.1,0.2c0.1,0.1,0.4,0.1,0.2,0.3c-0.1,0.2-0.3,0-0.4,0
		c-0.1-0.1-0.2-0.1-0.3,0.1c-0.1,0.2,0,0.2,0.1,0.3c0.1,0.1,0.2,0.1,0.3,0.2c0.1,0.1,0.3,0.1,0.2,0.3c-0.1,0.2-0.2,0-0.3,0
		c-0.8-0.4-0.8-0.4-0.3-1.2c0,0,0-0.1,0.1-0.1c0.4-0.6,0.8-0.6,1.2-0.1c0.1,0.1,0.1,0.1,0,0.2c-0.1,0.1-0.1,0.1-0.2,0.1
		C91.1,22.9,90.9,22.8,90.7,22.7z"/>
	<path class="st0" d="M119,22.4C119,22.3,119,22.3,119,22.4c-0.2-0.1-0.9-1.4-0.9-1.5c0.1-0.1,0.1-0.3,0.4-0.2
		c0.4,0.2,0.8,0.3,1.3,0.4c0.1,0,0.2,0,0.2,0.1c0,0.1-0.1,0.2-0.2,0.2c-0.5,0-0.6,0.2-0.5,0.6C119.2,22.2,119.1,22.3,119,22.4z"/>
	<path class="st0" d="M96.3,25.1c-0.1,0.2-0.2,0.2-0.3,0.1c-0.3-0.3-0.6-0.3-0.9,0c-0.1,0.1-0.2,0.1-0.3,0c-0.1-0.1,0-0.2,0-0.2
		c0.1-0.4,0.3-0.8,0.4-1.2c0.1-0.2,0.4-0.3,0.4-0.1C95.9,24.1,96.1,24.6,96.3,25.1z"/>
	<path class="st0" d="M97.2,25.1c-0.2,0-0.2-0.1-0.2-0.2c0-0.2-0.1-0.4-0.1-0.7c0-0.2-0.1-0.4-0.4-0.4c-0.1,0-0.2,0-0.2-0.1
		c0-0.1,0-0.1,0.1-0.2c0.3-0.1,0.7-0.1,1-0.2c0.1,0,0.2,0,0.2,0.1c0,0.1,0,0.2-0.1,0.2c-0.5,0-0.3,0.3-0.3,0.6
		c0.1,0.2,0.1,0.4,0.1,0.6C97.4,25,97.3,25.1,97.2,25.1z"/>
	<path class="st0" d="M106.7,22.2c0,0.1-0.1,0.3-0.3,0.1c-0.3-0.3-0.4-0.1-0.6,0.1c-0.1,0.2-0.3,0.3-0.4,0.5c-0.1,0.1-0.2,0.1-0.3,0
		c-0.1-0.1-0.1-0.2,0-0.3c0.1-0.1,0.2-0.3,0.4-0.4c0.2-0.2,0.5-0.4,0.1-0.7c-0.1-0.1,0-0.2,0.1-0.3
		C105.7,21.4,106.7,22.2,106.7,22.2z"/>
	<path class="st0" d="M119,19.8c0.2,0.1,0.4,0.2,0.7,0.4c0.3,0.2,0.5,0.2,0.7-0.2c0-0.1,0.1-0.4,0.3-0.2c0.2,0.1,0,0.3,0,0.4
		c-0.4,0.7-0.4,0.7-1.1,0.3c-0.2-0.1-0.4-0.2-0.6-0.4c-0.1,0-0.1-0.1-0.1-0.2C118.9,19.8,118.9,19.8,119,19.8z"/>
	<path class="st0" d="M104.5,19.8c0,0.1-0.1,0.2-0.2,0.2c-0.3,0.2-0.6,0.4-0.9,0.5c-0.1,0.1-0.2,0.2-0.3,0c-0.1-0.2,0-0.2,0.1-0.3
		c0.3-0.2,0.7-0.4,1-0.6c0.1,0,0.2-0.1,0.3,0C104.5,19.7,104.5,19.8,104.5,19.8z"/>
	<path class="st0" d="M98.8,24.5c0,0.1,0,0.2-0.2,0.2c-0.1,0-0.2,0-0.2-0.1c-0.1-0.4-0.3-0.8-0.4-1.2c0-0.1,0-0.2,0.1-0.2
		c0.1,0,0.2-0.1,0.2,0.1C98.4,23.6,98.6,24.1,98.8,24.5z"/>
	<path class="st0" d="M114.8,7.7c-0.3,0-0.4-0.2-0.4-0.4c0-0.1,0-0.3-0.2-0.3c-0.2,0-0.2,0.2-0.2,0.3c0,0.1-0.1,0.3-0.3,0.2
		c-0.2-0.1-0.2-0.2-0.1-0.4c0.1-0.2,0.1-0.5,0.2-0.7c0.1-0.2,0-0.5,0.3-0.5c0.3,0,0.7,0.1,0.9,0.3c0.1,0.1,0.2,0.4,0,0.5
		C114.7,7,114.8,7.3,114.8,7.7z"/>
	<path class="st0" d="M108.3,7.8c-0.3,0.3-0.4,0.1-0.6-0.1c-0.1-0.1-0.2-0.1-0.3-0.1c-0.1,0.1,0,0.2,0,0.3c0.1,0.1,0.2,0.3,0,0.4
		c-0.2,0.1-0.3-0.1-0.3-0.2c-0.1-0.2-0.2-0.4-0.3-0.6c-0.1-0.2-0.4-0.4-0.2-0.6c0.2-0.2,0.5-0.5,0.9-0.4c0.3,0.1,0.4,0.3,0.4,0.6
		C107.8,7.5,108.2,7.5,108.3,7.8z"/>
	<path class="st0" d="M109.9,6.7c0,0.5-0.4,0.9-0.9,0.8c-0.4,0-0.8-0.4-0.8-0.9c0-0.5,0.3-0.8,0.8-0.8
		C109.6,5.9,109.9,6.2,109.9,6.7z"/>
	<path class="st0" d="M111.6,7.1c0.2-0.5,0.5-0.9,0.7-1.4c0.1-0.1,0.1-0.2,0.3-0.2c0.2,0,0.2,0.1,0.3,0.2c0.1,0.4,0.2,0.8,0.3,1.2
		c0,0.1,0.1,0.2,0,0.2c-0.1,0-0.2,0-0.2,0c-0.3-0.4-0.6-0.4-0.9-0.1C111.9,7.1,111.8,7.1,111.6,7.1z"/>
	<path class="st0" d="M111.2,5.5c0.1,0,0.3-0.1,0.3,0.1c0,0.2-0.1,0.2-0.3,0.2C111,5.8,111,6,111,6.1c0,0.3,0.1,0.5,0.1,0.8
		c0,0.1-0.1,0.2-0.2,0.2c-0.1,0-0.2,0-0.2-0.2c0-0.2,0-0.4-0.1-0.7c0-0.2,0-0.5-0.4-0.4c-0.1,0-0.2,0-0.2-0.1c0-0.1,0.1-0.2,0.2-0.2
		C110.6,5.5,110.9,5.5,111.2,5.5z"/>
	<path class="st0" d="M117,7.1c-0.5,0.3-1,0.4-1.2,1c0,0.1-0.1,0.1-0.3,0c-0.1-0.1-0.2-0.1-0.1-0.2c0.4-0.5,0.1-1,0.1-1.5
		c0.6,0,0.4,0.5,0.5,0.7C116.4,7.1,116.7,6.7,117,7.1z"/>
	<path class="st1" d="M111.8,13.2c1.3,0,2.3,1.1,2.3,2.4c0,1.3-1.1,2.3-2.4,2.3c-1.3,0-2.3-1.1-2.2-2.4
		C109.4,14.2,110.5,13.2,111.8,13.2z"/>
	<path class="st1" d="M92.2,23.4c0.1,0.1,0.3,0,0.3,0.2c0,0.1-0.1,0.2-0.2,0.2c-0.1,0-0.3,0-0.3-0.2C92,23.4,92,23.3,92.2,23.4z"/>
	<path class="st1" d="M100.2,23.3c0,0.3-0.2,0.5-0.5,0.5c-0.3,0-0.5-0.2-0.5-0.5c0-0.3,0.2-0.5,0.5-0.5
		C100,22.8,100.1,23,100.2,23.3z"/>
	<path class="st1" d="M118.6,21c0.3,0.2,0.8,0.1,0.3,0.5C118.7,21.4,118.7,21.3,118.6,21z"/>
	<path class="st1" d="M95.5,24.2c0.1,0.2,0.3,0.3,0.1,0.4c0,0-0.2,0.1-0.2,0C95.2,24.5,95.5,24.3,95.5,24.2z"/>
	<path class="st1" d="M114.4,6.2c0.1,0.1,0.3,0,0.3,0.2c0,0.1-0.1,0.2-0.2,0.2c-0.1,0-0.3,0-0.3-0.2C114.2,6.3,114.2,6.2,114.4,6.2z
		"/>
	<path class="st1" d="M107.4,7.1c0,0.2-0.1,0.3-0.3,0.3c-0.2,0.1-0.2-0.1-0.2-0.2c0-0.2,0.2-0.2,0.3-0.3
		C107.3,6.9,107.4,7,107.4,7.1z"/>
	<path class="st1" d="M109.1,6.2c0.3,0,0.5,0.2,0.5,0.5c0,0.3-0.2,0.5-0.5,0.5c-0.3,0-0.5-0.2-0.5-0.5
		C108.6,6.3,108.8,6.2,109.1,6.2z"/>
	<path class="st1" d="M112.6,6.1c0.1,0.2,0.2,0.3,0.1,0.5c0,0-0.2,0-0.3,0C112.3,6.3,112.5,6.2,112.6,6.1z"/>
	<path class="st0" d="M111.7,17c-0.7,0-1.2-0.4-1.4-1.1c-0.2-0.7,0.1-1.3,0.6-1.7c0.2-0.1,0.4-0.1,0.4-0.5c0-0.2,0.7-0.2,0.7,0
		c0,0.3,0.2,0.3,0.4,0.4c0.6,0.4,0.9,1,0.7,1.7C113,16.6,112.4,17,111.7,17z"/>
	<text transform="matrix(1 0 0 1 16.7599 19.7104)" class="st0 st2 st3">R.A.C.N.M</text>
</g>
</svg>
