<svg width="69" height="69" viewBox="0 0 69 69" fill="none" xmlns="http://www.w3.org/2000/svg">
<path d="M31.6018 2.49869C33.2672 1.06288 35.7328 1.06287 37.3982 2.49868L42.7831 7.14131C43.6043 7.84937 44.6564 8.23228 45.7406 8.21777L52.8499 8.12266C55.0486 8.09324 56.9374 9.67811 57.2902 11.8485L58.431 18.8663C58.605 19.9366 59.1648 20.9062 60.0047 21.592L65.5119 26.0889C67.2151 27.4796 67.6432 29.9078 66.5184 31.7972L62.8814 37.9064C62.3267 38.8382 62.1323 39.9407 62.3349 41.006L63.663 47.9908C64.0738 50.1509 62.841 52.2862 60.7649 53.0106L54.0518 55.3527C53.028 55.7099 52.1703 56.4295 51.6408 57.3758L48.1685 63.5802C47.0946 65.499 44.7777 66.3423 42.7217 65.5626L36.0737 63.0417C35.0598 62.6573 33.9402 62.6573 32.9263 63.0417L26.2783 65.5626C24.2223 66.3423 21.9054 65.499 20.8315 63.5802L17.3592 57.3758C16.8297 56.4295 15.972 55.7099 14.9482 55.3527L8.23514 53.0106C6.15901 52.2862 4.9262 50.1509 5.33696 47.9908L6.66515 41.006C6.86771 39.9407 6.6733 38.8382 6.11861 37.9064L2.4816 31.7972C1.35679 29.9078 1.78493 27.4796 3.48812 26.0889L8.99529 21.592C9.8352 20.9062 10.395 19.9366 10.569 18.8663L11.7098 11.8485C12.0626 9.67811 13.9514 8.09324 16.1501 8.12266L23.2594 8.21777C24.3436 8.23228 25.3957 7.84937 26.2169 7.14131L31.6018 2.49869Z" fill="#00C7B2"/>
<path d="M34.337 37.7148L35.6585 39.0902C36.052 39.4997 36.7072 39.4997 37.1007 39.0902L47.563 28.2015C48.1434 27.5974 49.1098 27.5974 49.6902 28.2015C50.2387 28.7724 50.2387 29.6745 49.6902 30.2453L37.8218 42.5974C37.0348 43.4165 35.7244 43.4165 34.9374 42.5974L28.1553 35.5389C27.6068 34.968 27.6068 34.0659 28.1553 33.495C28.7357 32.891 29.702 32.891 30.2825 33.495L32.2929 35.5874L34.337 37.7133V37.7148ZM35.3189 34.476C34.772 33.9068 34.7719 33.0073 35.3188 32.438L40.4429 27.104C41.0217 26.5016 41.9854 26.5015 42.5642 27.1039C43.1111 27.6731 43.1112 28.5726 42.5643 29.1419L37.4402 34.4759C36.8614 35.0783 35.8977 35.0784 35.3189 34.476ZM29.2691 40.9498C29.8172 41.5203 29.8172 42.4217 29.2691 42.9922C28.6891 43.5958 27.7234 43.5958 27.1434 42.9922L19.9819 35.5389C19.4334 34.968 19.4334 34.0659 19.9819 33.495C20.5623 32.891 21.5287 32.891 22.1091 33.495L23.0896 34.5155L23.0881 34.517L29.2691 40.9498Z" fill="white"/>
</svg>
