<?xml version="1.0" encoding="utf-8"?>
<!-- Generator: Adobe Illustrator 24.0.1, SVG Export Plug-In . SVG Version: 6.00 Build 0)  -->
<svg version="1.1" id="Layer_1" xmlns="http://www.w3.org/2000/svg" xmlns:xlink="http://www.w3.org/1999/xlink" x="0px" y="0px"
	 viewBox="0 0 644 32" style="enable-background:new 0 0 644 32;" xml:space="preserve">
<style type="text/css">
	.st0{clip-path:url(#SVGID_2_);}
	.st1{fill:#25334D;}
	.st2{clip-path:url(#SVGID_4_);}
	.st3{fill:#B7B7B7;}
	.st4{clip-path:url(#SVGID_6_);}
	.st5{fill:#5A5A5A;}
	.st6{clip-path:url(#SVGID_8_);}
	.st7{fill:#ED6A5E;}
	.st8{fill:none;stroke:#000000;stroke-width:0.7778;stroke-opacity:0.1;}
	.st9{fill:#F4BD50;}
	.st10{fill:#61C454;}
	.st11{clip-path:url(#SVGID_10_);}
	.st12{fill:#3C5175;}
	.st13{fill:#FFFFFF;}
	.st14{clip-path:url(#SVGID_12_);}
	.st15{fill:#E3E3E3;}
</style>
<g>
	<defs>
		<rect id="SVGID_1_" width="644" height="31.1"/>
	</defs>
	<clipPath id="SVGID_2_">
		<use xlink:href="#SVGID_1_"  style="overflow:visible;"/>
	</clipPath>
	<g class="st0">
		<path class="st1" d="M0,12.4c0-4.4,0-6.5,0.8-8.2c0.7-1.5,1.9-2.7,3.4-3.4C5.9,0,8.1,0,12.4,0h619.1c4.4,0,6.5,0,8.2,0.8
			c1.5,0.7,2.7,1.9,3.4,3.4c0.8,1.7,0.8,3.8,0.8,8.2v18.7H0V12.4z"/>
		<g>
			<defs>
				<rect id="SVGID_3_" x="556.9" y="5.4" width="74.7" height="18.7"/>
			</defs>
			<clipPath id="SVGID_4_">
				<use xlink:href="#SVGID_3_"  style="overflow:visible;"/>
			</clipPath>
			<g class="st2">
				<path class="st3" d="M566.2,16.6c0.3,0,0.6-0.3,0.6-0.6V9.5l0-1l0.4,0.5l0.9,1c0.1,0.1,0.3,0.2,0.4,0.2c0.3,0,0.5-0.2,0.5-0.5
					c0-0.2-0.1-0.3-0.2-0.4l-2.2-2.1c-0.2-0.2-0.3-0.2-0.5-0.2c-0.2,0-0.3,0.1-0.5,0.2l-2.2,2.1c-0.1,0.1-0.2,0.2-0.2,0.4
					c0,0.3,0.2,0.5,0.5,0.5c0.1,0,0.3-0.1,0.4-0.2l0.9-1l0.4-0.5l-0.1,1V16C565.6,16.4,565.9,16.6,566.2,16.6z M562.5,21.8h7.4
					c1.4,0,2.1-0.7,2.1-2.1v-6.3c0-1.4-0.7-2.1-2.1-2.1h-1.7v1.3h1.7c0.6,0,0.9,0.3,0.9,0.9v6.1c0,0.6-0.3,0.9-0.9,0.9h-7.3
					c-0.6,0-0.9-0.3-0.9-0.9v-6.1c0-0.6,0.3-0.9,0.9-0.9h1.7v-1.3h-1.8c-1.4,0-2.1,0.7-2.1,2.1v6.3
					C560.4,21.1,561.1,21.8,562.5,21.8z"/>
				<path class="st3" d="M593.4,20.2c0.4,0,0.7-0.3,0.7-0.7v-4h4c0.4,0,0.7-0.3,0.7-0.7c0-0.4-0.3-0.7-0.7-0.7h-4v-4
					c0-0.4-0.3-0.7-0.7-0.7c-0.4,0-0.7,0.3-0.7,0.7v4h-4c-0.4,0-0.7,0.3-0.7,0.7c0,0.4,0.4,0.7,0.7,0.7h4v4
					C592.7,19.9,593,20.2,593.4,20.2z"/>
				<path class="st3" d="M617.3,18.7h1.1v1c0,1.4,0.7,2.1,2.1,2.1h6.5c1.4,0,2.1-0.7,2.1-2.1v-6.6c0-1.4-0.7-2.1-2.1-2.1H626v-1
					c0-1.4-0.7-2.1-2.1-2.1h-6.5c-1.4,0-2.1,0.7-2.1,2.1v6.6C615.2,18,615.9,18.7,617.3,18.7z M617.4,17.4c-0.6,0-0.9-0.3-0.9-0.9
					v-6.3c0-0.6,0.3-0.9,0.9-0.9h6.4c0.6,0,0.9,0.3,0.9,0.9V11h-4.2c-1.4,0-2.1,0.7-2.1,2.1v4.3H617.4z M620.6,20.5
					c-0.6,0-0.9-0.3-0.9-0.9v-6.4c0-0.6,0.3-0.9,0.9-0.9h6.4c0.6,0,0.9,0.3,0.9,0.9v6.4c0,0.6-0.3,0.9-0.9,0.9H620.6z"/>
			</g>
		</g>
		<g>
			<defs>
				<rect id="SVGID_5_" x="74.7" y="5.4" width="76.2" height="18.7"/>
			</defs>
			<clipPath id="SVGID_6_">
				<use xlink:href="#SVGID_5_"  style="overflow:visible;"/>
			</clipPath>
			<g class="st4">
				<path class="st3" d="M78.3,21.4h11c1.4,0,2.1-0.7,2.1-2.1v-7.9c0-1.4-0.7-2.1-2.1-2.1h-11c-1.4,0-2.1,0.7-2.1,2.1v7.9
					C76.2,20.7,77,21.4,78.3,21.4z M78.4,20.1c-0.6,0-0.9-0.3-0.9-0.9v-7.6c0-0.6,0.3-0.9,0.9-0.9h2.9v9.5H78.4z M89.3,10.6
					c0.6,0,0.9,0.3,0.9,0.9v7.6c0,0.6-0.3,0.9-0.9,0.9h-6.7v-9.5H89.3z M80.1,13c0.2,0,0.4-0.2,0.4-0.4c0-0.2-0.2-0.4-0.4-0.4h-1.3
					c-0.2,0-0.4,0.2-0.4,0.4c0,0.2,0.2,0.4,0.4,0.4H80.1z M80.1,14.7c0.2,0,0.4-0.2,0.4-0.4c0-0.2-0.2-0.4-0.4-0.4h-1.3
					c-0.2,0-0.4,0.2-0.4,0.4c0,0.2,0.2,0.4,0.4,0.4H80.1z M80.1,16.4c0.2,0,0.4-0.2,0.4-0.4c0-0.2-0.2-0.4-0.4-0.4h-1.3
					c-0.2,0-0.4,0.2-0.4,0.4c0,0.2,0.2,0.4,0.4,0.4H80.1z"/>
				<path class="st3" d="M116.2,20.3l-4.7-4.6c-0.2-0.2-0.2-0.3-0.2-0.6c0-0.2,0.1-0.4,0.3-0.6l4.7-4.6c0.1-0.1,0.3-0.2,0.5-0.2
					c0.4,0,0.7,0.3,0.7,0.7c0,0.2-0.1,0.4-0.2,0.5l-4.3,4.1l4.3,4.2c0.1,0.1,0.2,0.3,0.2,0.5c0,0.4-0.3,0.7-0.7,0.7
					C116.5,20.5,116.3,20.4,116.2,20.3z"/>
				<path class="st5" d="M139.6,20.5c0.2,0,0.4-0.1,0.5-0.2l4.7-4.6c0.2-0.2,0.2-0.3,0.2-0.6c0-0.2-0.1-0.4-0.2-0.6l-4.7-4.6
					c-0.1-0.1-0.3-0.2-0.5-0.2c-0.4,0-0.7,0.3-0.7,0.7c0,0.2,0.1,0.4,0.2,0.5l4.3,4.2l-4.3,4.1c-0.1,0.1-0.2,0.3-0.2,0.5
					C138.8,20.2,139.1,20.5,139.6,20.5z"/>
			</g>
		</g>
		<g>
			<defs>
				<rect id="SVGID_7_" x="15.6" y="10.9" width="40.4" height="9.3"/>
			</defs>
			<clipPath id="SVGID_8_">
				<use xlink:href="#SVGID_7_"  style="overflow:visible;"/>
			</clipPath>
			<g class="st6">
				<circle class="st7" cx="20.2" cy="15.6" r="4.7"/>
				<circle class="st8" cx="20.2" cy="15.6" r="4.3"/>
				<circle class="st9" cx="35.8" cy="15.6" r="4.7"/>
				<circle class="st8" cx="35.8" cy="15.6" r="4.3"/>
				<circle class="st10" cx="51.3" cy="15.6" r="4.7"/>
				<circle class="st8" cx="51.3" cy="15.6" r="4.3"/>
			</g>
		</g>
		<path class="st3" d="M220.9,21.8c0.1,0,0.3,0,0.4-0.1c3.7-2,5-3,5-5.3v-4.9c0-0.8-0.3-1.1-0.9-1.3c-0.7-0.3-3.1-1.1-3.8-1.4
			c-0.2-0.1-0.5-0.1-0.7-0.1c-0.2,0-0.5,0.1-0.7,0.1c-0.7,0.2-3.1,1.1-3.8,1.4c-0.6,0.3-0.9,0.6-0.9,1.3v4.9c0,2.4,1.3,3.3,5,5.3
			C220.6,21.7,220.8,21.8,220.9,21.8z M221.2,9.9c0.8,0.3,2.7,1,3.6,1.3c0.2,0.1,0.2,0.2,0.2,0.4v4.5c0,1.9-0.9,2.4-3.8,4.2
			c-0.2,0.1-0.3,0.1-0.4,0.1V9.8C221,9.8,221.1,9.8,221.2,9.9z"/>
		<g>
			<defs>
				<rect id="SVGID_9_" x="234.1" y="4.7" width="175.8" height="21.8"/>
			</defs>
			<clipPath id="SVGID_10_">
				<use xlink:href="#SVGID_9_"  style="overflow:visible;"/>
			</clipPath>
			<g class="st11">
				<path class="st12" d="M234.1,12.1c0-2.6,0-3.9,0.5-4.9c0.4-0.9,1.2-1.6,2-2c1-0.5,2.3-0.5,4.9-0.5h160.8c2.6,0,3.9,0,4.9,0.5
					c0.9,0.4,1.6,1.2,2,2c0.5,1,0.5,2.3,0.5,4.9V19c0,2.6,0,3.9-0.5,4.9c-0.4,0.9-1.2,1.6-2,2c-1,0.5-2.3,0.5-4.9,0.5H241.6
					c-2.6,0-3.9,0-4.9-0.5c-0.9-0.4-1.6-1.2-2-2c-0.5-1-0.5-2.3-0.5-4.9V12.1z"/>
				<g>
					<g>
						<path class="st13" d="M293,14l-1.8,6h-1l-1.2-4.3c0-0.2-0.1-0.3-0.1-0.6h0c0,0.1-0.1,0.3-0.1,0.5l-1.3,4.3h-1l-1.8-6h1
							l1.2,4.5c0,0.1,0.1,0.3,0.1,0.5h0c0-0.2,0-0.4,0.1-0.6l1.4-4.5h0.9l1.2,4.5c0,0.1,0.1,0.3,0.1,0.5h0c0-0.2,0-0.3,0.1-0.5
							l1.2-4.5H293z"/>
						<path class="st13" d="M301.7,14l-1.8,6h-1l-1.2-4.3c0-0.2-0.1-0.3-0.1-0.6h0c0,0.1-0.1,0.3-0.1,0.5l-1.3,4.3h-1l-1.8-6h1
							l1.2,4.5c0,0.1,0.1,0.3,0.1,0.5h0c0-0.2,0-0.4,0.1-0.6l1.4-4.5h0.9l1.2,4.5c0,0.1,0.1,0.3,0.1,0.5h0c0-0.2,0-0.3,0.1-0.5
							l1.2-4.5H301.7z"/>
						<path class="st13" d="M310.4,14l-1.8,6h-1l-1.2-4.3c0-0.2-0.1-0.3-0.1-0.6h0c0,0.1-0.1,0.3-0.1,0.5l-1.3,4.3h-1l-1.8-6h1
							l1.2,4.5c0,0.1,0.1,0.3,0.1,0.5h0c0-0.2,0-0.4,0.1-0.6l1.4-4.5h0.9l1.2,4.5c0,0.1,0.1,0.3,0.1,0.5h0c0-0.2,0-0.3,0.1-0.5
							l1.2-4.5H310.4z"/>
						<path class="st13" d="M311.8,20.1c-0.2,0-0.3-0.1-0.5-0.2s-0.2-0.3-0.2-0.5s0.1-0.3,0.2-0.5s0.3-0.2,0.5-0.2
							c0.2,0,0.3,0.1,0.5,0.2s0.2,0.3,0.2,0.5s-0.1,0.3-0.2,0.5S312,20.1,311.8,20.1z"/>
						<path class="st13" d="M313.7,19.8v-1c0.5,0.4,1.1,0.6,1.7,0.6c0.8,0,1.3-0.3,1.3-0.8c0-0.2,0-0.3-0.1-0.4s-0.2-0.2-0.3-0.3
							s-0.3-0.2-0.4-0.2s-0.3-0.1-0.5-0.2c-0.3-0.1-0.5-0.2-0.7-0.3c-0.2-0.1-0.4-0.2-0.5-0.4s-0.2-0.3-0.3-0.5s-0.1-0.4-0.1-0.6
							c0-0.3,0.1-0.5,0.2-0.7s0.3-0.4,0.5-0.5s0.5-0.3,0.7-0.3s0.6-0.1,0.9-0.1c0.5,0,1,0.1,1.4,0.3v1c-0.4-0.3-0.9-0.4-1.5-0.4
							c-0.2,0-0.3,0-0.5,0.1s-0.3,0.1-0.4,0.2s-0.2,0.2-0.2,0.3s-0.1,0.2-0.1,0.3c0,0.2,0,0.3,0.1,0.4s0.1,0.2,0.2,0.3
							s0.2,0.2,0.4,0.2s0.3,0.1,0.5,0.2c0.3,0.1,0.5,0.2,0.7,0.3c0.2,0.1,0.4,0.2,0.5,0.4s0.3,0.3,0.3,0.5s0.1,0.4,0.1,0.6
							c0,0.3-0.1,0.6-0.2,0.8s-0.3,0.4-0.5,0.5s-0.5,0.3-0.8,0.3s-0.6,0.1-0.9,0.1C314.7,20.1,314.2,20,313.7,19.8z"/>
						<path class="st13" d="M327.7,20h-1v-3.4c0-0.7-0.1-1.1-0.3-1.4s-0.5-0.4-1-0.4c-0.4,0-0.8,0.2-1,0.6s-0.4,0.8-0.4,1.3V20h-1
							v-3.6c0-1.2-0.5-1.8-1.4-1.8c-0.4,0-0.8,0.2-1,0.5s-0.4,0.8-0.4,1.4V20h-1v-6h1v0.9h0c0.4-0.7,1-1.1,1.9-1.1
							c0.4,0,0.8,0.1,1.1,0.3c0.3,0.2,0.5,0.5,0.6,0.9c0.4-0.8,1.1-1.2,2-1.2c1.3,0,2,0.8,2,2.4V20z"/>
						<path class="st13" d="M333.8,20h-1v-0.9h0c-0.4,0.7-1,1.1-1.8,1.1c-0.6,0-1.1-0.2-1.4-0.5s-0.5-0.7-0.5-1.3c0-1.1,0.7-1.8,2-2
							l1.8-0.3c0-1-0.4-1.5-1.2-1.5c-0.7,0-1.4,0.2-2,0.7v-1c0.6-0.4,1.3-0.6,2-0.6c1.4,0,2.1,0.7,2.1,2.2V20z M332.9,17l-1.4,0.2
							c-0.4,0.1-0.8,0.2-1,0.3s-0.3,0.4-0.3,0.8c0,0.3,0.1,0.5,0.3,0.7s0.5,0.3,0.8,0.3c0.5,0,0.9-0.2,1.2-0.5s0.5-0.8,0.5-1.3V17z"
							/>
						<path class="st13" d="M338.8,15c-0.2-0.1-0.4-0.2-0.7-0.2c-0.4,0-0.8,0.2-1,0.6s-0.4,0.9-0.4,1.6V20h-1v-6h1v1.2h0
							c0.1-0.4,0.3-0.8,0.6-1s0.6-0.4,0.9-0.4c0.3,0,0.4,0,0.6,0.1V15z"/>
						<path class="st13" d="M344.1,20h-1v-0.9h0c-0.4,0.7-1,1.1-1.8,1.1c-0.6,0-1.1-0.2-1.4-0.5s-0.5-0.7-0.5-1.3c0-1.1,0.7-1.8,2-2
							l1.8-0.3c0-1-0.4-1.5-1.2-1.5c-0.7,0-1.4,0.2-2,0.7v-1c0.6-0.4,1.3-0.6,2-0.6c1.4,0,2.1,0.7,2.1,2.2V20z M343.1,17l-1.4,0.2
							c-0.4,0.1-0.8,0.2-1,0.3s-0.3,0.4-0.3,0.8c0,0.3,0.1,0.5,0.3,0.7s0.5,0.3,0.8,0.3c0.5,0,0.9-0.2,1.2-0.5s0.5-0.8,0.5-1.3V17z"
							/>
						<path class="st13" d="M350.9,20h-1v-3.4c0-1.3-0.5-1.9-1.4-1.9c-0.5,0-0.9,0.2-1.2,0.5s-0.5,0.8-0.5,1.4V20h-1v-6h1v1h0
							c0.5-0.8,1.1-1.1,2-1.1c0.7,0,1.2,0.2,1.5,0.6s0.5,1,0.5,1.8V20z"/>
						<path class="st13" d="M353,20.1c-0.2,0-0.3-0.1-0.5-0.2s-0.2-0.3-0.2-0.5s0.1-0.3,0.2-0.5s0.3-0.2,0.5-0.2
							c0.2,0,0.3,0.1,0.5,0.2s0.2,0.3,0.2,0.5s-0.1,0.3-0.2,0.5S353.2,20.1,353,20.1z"/>
						<path class="st13" d="M355.8,12.5c-0.2,0-0.3-0.1-0.4-0.2s-0.2-0.3-0.2-0.4s0.1-0.3,0.2-0.4s0.3-0.2,0.4-0.2
							c0.2,0,0.3,0.1,0.4,0.2s0.2,0.3,0.2,0.4c0,0.2-0.1,0.3-0.2,0.4S356,12.5,355.8,12.5z M356.3,20h-1v-6h1V20z"/>
						<path class="st13" d="M360.7,20.1c-0.9,0-1.6-0.3-2.1-0.8s-0.8-1.3-0.8-2.2c0-1,0.3-1.8,0.8-2.4s1.3-0.8,2.2-0.8
							c0.9,0,1.6,0.3,2.1,0.8s0.8,1.3,0.8,2.3c0,1-0.3,1.7-0.8,2.3S361.6,20.1,360.7,20.1z M360.8,14.7c-0.6,0-1.1,0.2-1.5,0.6
							s-0.5,1-0.5,1.7c0,0.7,0.2,1.3,0.5,1.7s0.8,0.6,1.5,0.6c0.6,0,1.1-0.2,1.4-0.6s0.5-1,0.5-1.7c0-0.8-0.2-1.3-0.5-1.7
							S361.4,14.7,360.8,14.7z"/>
					</g>
				</g>
				<g>
					<defs>
						<rect id="SVGID_11_" x="395.5" y="9.9" width="10.1" height="10.9"/>
					</defs>
					<clipPath id="SVGID_12_">
						<use xlink:href="#SVGID_11_"  style="overflow:visible;"/>
					</clipPath>
					<g class="st14">
						<path class="st15" d="M400.4,15.2c0.1,0,0.2,0,0.3-0.1l1.9-1.9c0.1-0.1,0.1-0.2,0.1-0.3c0-0.1,0-0.2-0.1-0.3l-1.9-1.9
							c-0.1-0.1-0.2-0.1-0.3-0.1c-0.2,0-0.4,0.2-0.4,0.5c0,0.1,0,0.2,0.1,0.3l1.1,1.1c-0.2,0-0.4-0.1-0.7-0.1
							c-2.3,0-4.1,1.8-4.1,4.1s1.8,4.1,4.1,4.1c2.3,0,4.1-1.8,4.1-4.1c0-0.3-0.2-0.5-0.5-0.5c-0.3,0-0.4,0.2-0.4,0.5
							c0,1.8-1.4,3.2-3.2,3.2c-1.8,0-3.2-1.4-3.2-3.2c0-1.8,1.4-3.2,3.2-3.2c0.3,0,0.6,0,0.8,0.1l-1.2,1.2c-0.1,0.1-0.1,0.2-0.1,0.3
							C400,15,400.2,15.2,400.4,15.2z"/>
					</g>
				</g>
				<path class="st13" d="M248,9.9c-1.6,0-2.9,1.3-2.9,2.9v1.8h-0.6c-0.6,0-1.2,0.5-1.2,1.2v4.7c0,0.6,0.5,1.2,1.2,1.2h7
					c0.6,0,1.2-0.5,1.2-1.2v-4.7c0-0.6-0.5-1.2-1.2-1.2h-0.6v-1.8C250.9,11.3,249.6,9.9,248,9.9z M251.5,15.8l0,4.7h-7v-4.7H251.5z
					 M246.3,14.6v-1.8c0-1,0.8-1.8,1.8-1.8s1.8,0.8,1.8,1.8v1.8H246.3z"/>
			</g>
		</g>
	</g>
</g>
</svg>
