<?xml version="1.0" encoding="utf-8"?>
<!-- Generator: Adobe Illustrator 24.0.1, SVG Export Plug-In . SVG Version: 6.00 Build 0)  -->
<svg version="1.1" id="Layer_1" xmlns="http://www.w3.org/2000/svg" xmlns:xlink="http://www.w3.org/1999/xlink" x="0px" y="0px"
	 viewBox="0 0 22 22" style="enable-background:new 0 0 22 22;" xml:space="preserve">
<style type="text/css">
	.st0{fill:#FFFFFF;}
</style>
<path class="st0" d="M4.9,3.5C4.5,4,4.5,5.1,5,5.5c4,2.7,8,5.4,12,8.1c0.1,0.1,0.2,0.1,0.3,0.2c0.1-0.7,0.1-1.4,0-2
	c0-0.2-0.3-0.3-0.5-0.4C14.2,9.5,11.6,7.7,9,5.9C8.7,5.8,8.5,5.6,8.3,5.3c1.2,0,2.4,0,3.5,0c0.2,0,0.3,0.2,0.5,0.2
	c2.3,1.5,4.6,3.1,6.8,4.6c0.3,0.2,0.5,0.4,0.5,0.8c0,1.5,0,2.9,0,4.4c0,0.3-0.1,0.5-0.4,0.7c-2.6,1.7-5.1,3.5-7.7,5.2
	c-0.3,0.2-0.6,0.2-0.9,0C8,19.5,5.4,17.8,2.9,16c-0.3-0.2-0.4-0.3-0.4-0.7c0-2.1,0-4.2,0-6.3c0-0.1-0.1-0.3,0.1-0.4
	c0.2-0.1,0.3,0.1,0.4,0.2c3.2,2.2,6.4,4.4,9.7,6.5c0.2,0.2,0.3,0.2,0,0.5c-1.5,1.2-1.5,1.2-3.1,0.1c-1.5-1-3-2-4.5-3
	c-0.4-0.3-0.4-0.1-0.5,0.3c-0.1,1,0.2,1.7,1.2,2.3c1.6,1,3.2,2.1,4.7,3.2c0.4,0.2,0.6,0.3,1,0c1.3-0.9,2.6-1.8,4-2.7
	c0.6-0.4,0.5-0.4,0-0.7c-4.1-2.8-8.2-5.5-12.3-8.3C2.7,6.5,2.4,6.2,2.4,5.5c0.1-1.2,0-2.4,0-3.6c0-0.4,0.1-0.5,0.5-0.5
	c5.3,0,10.7,0,16,0c0.4,0,0.6,0.1,0.6,0.6c0,2,0,3.9,0,5.9c0,0.2,0.1,0.6-0.3,0.3c-1.4-0.9-2.7-1.8-4.2-2.8c0.7-0.2,1.2-0.1,1.8-0.1
	c0.4,0,0.5-0.1,0.5-0.5c0-0.2,0-0.5,0-0.8c0-0.3-0.1-0.4-0.4-0.5c0,0-0.1,0-0.1,0c-4,0-7.9,0-11.9,0C4.9,3.5,4.9,3.5,4.9,3.5z"/>
</svg>
