<svg width="70" height="70" viewBox="0 0 70 70" fill="none" xmlns="http://www.w3.org/2000/svg">
<g clip-path="url(#clip0_2861_475)">
<mask id="mask0_2861_475" style="mask-type:luminance" maskUnits="userSpaceOnUse" x="0" y="0" width="70" height="70">
<path d="M70 0H0V70H70V0Z" fill="white"/>
</mask>
<g mask="url(#mask0_2861_475)">
<mask id="mask1_2861_475" style="mask-type:luminance" maskUnits="userSpaceOnUse" x="0" y="0" width="70" height="70">
<path d="M60 0H10C4.47715 0 0 4.47715 0 10V60C0 65.5229 4.47715 70 10 70H60C65.5229 70 70 65.5229 70 60V10C70 4.47715 65.5229 0 60 0Z" fill="white"/>
</mask>
<g mask="url(#mask1_2861_475)">
<path d="M60 0H10C4.47715 0 0 4.47715 0 10V60C0 65.5229 4.47715 70 10 70H60C65.5228 70 70 65.5229 70 60V10C70 4.47715 65.5228 0 60 0Z" fill="#2E001E"/>
<path d="M94.8573 -15.5183C94.8573 -15.5183 68.4787 -2.95585 73.1606 28.1213C78.4135 62.9671 47.9525 77.9224 27.1408 69.3081C6.3291 60.664 7.78506 28.6896 -31.7828 27.7025C-72.2071 26.7155 -80.7145 -13.5442 -80.7145 -13.5442" stroke="white" stroke-opacity="0.2" stroke-width="2" stroke-miterlimit="10"/>
<path d="M64.3677 -24.8806C64.3677 -24.8806 52.9484 1.68002 57.0308 28.0911C61.1418 54.5021 42.671 57.6128 35.3341 54.5021C20.0894 48.1013 17.1489 13.8237 -7.4597 11.6103C-25.959 9.93532 -50.853 23.1857 -64.0423 -6.87442" stroke="white" stroke-opacity="0.2" stroke-width="2" stroke-miterlimit="10"/>
<path d="M52.0634 -13.0357C52.0634 -13.0357 56.1743 14.0932 37.9891 9.24766C17.1489 3.6843 17.4629 -9.35671 -8.91566 2.96644C-18.308 7.3633 -56.1059 8.64945 -48.4835 -15.5183" stroke="white" stroke-opacity="0.2" stroke-width="2" stroke-miterlimit="10"/>
<path d="M38.8742 45.1404C43.2416 45.1404 46.782 39.6767 46.782 32.9369C46.782 26.1971 43.2416 20.7334 38.8742 20.7334C34.5068 20.7334 30.9663 26.1971 30.9663 32.9369C30.9663 39.6767 34.5068 45.1404 38.8742 45.1404Z" stroke="white" stroke-opacity="0.2" stroke-width="2" stroke-miterlimit="10"/>
</g>
<mask id="mask2_2861_475" style="mask-type:luminance" maskUnits="userSpaceOnUse" x="10" y="11" width="50" height="49">
<path d="M60 11H10V59.76H60V11Z" fill="white"/>
</mask>
<g mask="url(#mask2_2861_475)">
<path d="M12.0833 13.0884H57.9167V57.6717H12.0833V13.0884Z" fill="#2E001E"/>
<path d="M10 11.0049V59.7549H60V11.0049H10ZM12.0833 13.0882H57.9167V57.6715H12.0833V13.0882Z" fill="#FF2BC2"/>
<path d="M46.3125 31.4841C46 31.3382 45.6042 31.2757 45.1042 31.2757C42.4792 31.2757 40.7292 33.2965 40.7292 36.6507C40.7292 40.484 42.5208 42.0257 44.8542 42.0257C45.3542 42.0257 45.8958 41.9632 46.2917 41.7966V31.4841H46.3125ZM36.9792 36.8174C36.9792 31.9632 40.1042 28.1716 45.2292 28.1716C45.6667 28.1716 45.8958 28.1715 46.3125 28.2132V22.7965C46.3125 22.6715 46.4167 22.5882 46.5208 22.5882H49.875C50.0417 22.5882 50.0833 22.6507 50.0833 22.7549V41.7966C50.0833 42.3591 50.0833 43.0674 50.1875 43.8382C50.1875 43.9841 50.1875 44.0049 50.0625 44.0674C48.3125 44.9007 46.4792 45.2757 44.7292 45.2757C40.2083 45.2757 36.9792 42.4841 36.9792 36.8174ZM29.875 33.4424L35.7083 44.7549C35.8125 44.9216 35.75 45.0882 35.5833 45.0882H31.9583C31.7292 45.0882 31.625 45.0257 31.5208 44.8174C30.1875 42.0674 28.8333 39.2132 27.4375 36.2549H27.3958C26.1458 39.0465 24.7708 42.0882 23.4375 44.8382C23.3333 45.0049 23.2292 45.0674 23.0625 45.0674H19.6042C19.3958 45.0674 19.375 44.9007 19.4792 44.7757L25.1875 33.7966L19.6667 22.8799C19.5417 22.7132 19.6667 22.5674 19.8125 22.5674H23.3958C23.6042 22.5674 23.7083 22.609 23.7708 22.7965C25.0833 25.5674 26.4167 28.2966 27.6667 31.0882H27.7083C28.9167 28.3382 30.25 25.5674 31.5208 22.8382C31.625 22.6715 31.6875 22.5674 31.8958 22.5674H35.25C35.4167 22.5674 35.4792 22.6924 35.375 22.8799L29.875 33.4424Z" fill="#FF2BC2"/>
</g>
</g>
</g>
<defs>
<clipPath id="clip0_2861_475">
<rect width="70" height="70" fill="white"/>
</clipPath>
</defs>
</svg>
