<svg width="70" height="70" viewBox="0 0 70 70" fill="none" xmlns="http://www.w3.org/2000/svg">
<g clip-path="url(#clip0_2860_452)">
<mask id="mask0_2860_452" style="mask-type:luminance" maskUnits="userSpaceOnUse" x="0" y="0" width="70" height="70">
<path d="M70 0H0V70H70V0Z" fill="white"/>
</mask>
<g mask="url(#mask0_2860_452)">
<mask id="mask1_2860_452" style="mask-type:luminance" maskUnits="userSpaceOnUse" x="0" y="0" width="70" height="70">
<path d="M60 0H10C4.47715 0 0 4.47715 0 10V60C0 65.5229 4.47715 70 10 70H60C65.5229 70 70 65.5229 70 60V10C70 4.47715 65.5229 0 60 0Z" fill="white"/>
</mask>
<g mask="url(#mask1_2860_452)">
<path d="M60 0H10C4.47715 0 0 4.47715 0 10V60C0 65.5229 4.47715 70 10 70H60C65.5229 70 70 65.5229 70 60V10C70 4.47715 65.5229 0 60 0Z" fill="#612E2E"/>
<path d="M94.8572 -15.5183C94.8572 -15.5183 68.4786 -2.95585 73.1606 28.1213C78.4134 62.9671 47.9524 77.9224 27.1408 69.3081C6.3291 60.664 7.78506 28.6896 -31.7828 27.7025C-72.2072 26.7155 -80.7145 -13.5442 -80.7145 -13.5442" fill="#612E2E"/>
<path d="M94.8572 -15.5183C94.8572 -15.5183 68.4786 -2.95585 73.1606 28.1213C78.4134 62.9671 47.9524 77.9224 27.1408 69.3081C6.3291 60.664 7.78506 28.6896 -31.7828 27.7025C-72.2072 26.7155 -80.7145 -13.5442 -80.7145 -13.5442" stroke="white" stroke-opacity="0.2" stroke-width="2" stroke-miterlimit="10"/>
<path d="M64.3677 -24.8806C64.3677 -24.8806 52.9484 1.68002 57.0308 28.0911C61.1417 54.5021 42.671 57.6128 35.3341 54.5021C20.0894 48.1013 17.1489 13.8237 -7.45969 11.6103C-25.959 9.93532 -50.8531 23.1857 -64.0424 -6.87442" fill="#612E2E"/>
<path d="M64.3677 -24.8806C64.3677 -24.8806 52.9484 1.68002 57.0308 28.0911C61.1417 54.5021 42.671 57.6128 35.3341 54.5021C20.0894 48.1013 17.1489 13.8237 -7.45969 11.6103C-25.959 9.93532 -50.8531 23.1857 -64.0424 -6.87442" stroke="white" stroke-opacity="0.2" stroke-width="2" stroke-miterlimit="10"/>
<path d="M52.0634 -13.0357C52.0634 -13.0357 56.1743 14.0932 37.9891 9.24766C17.1488 3.6843 17.4629 -9.35671 -8.91567 2.96644C-18.3081 7.3633 -56.106 8.64945 -48.4836 -15.5183" fill="#612E2E"/>
<path d="M52.0634 -13.0357C52.0634 -13.0357 56.1743 14.0932 37.9891 9.24766C17.1488 3.6843 17.4629 -9.35671 -8.91567 2.96644C-18.3081 7.3633 -56.106 8.64945 -48.4836 -15.5183" stroke="white" stroke-opacity="0.2" stroke-width="2" stroke-miterlimit="10"/>
</g>
<mask id="mask2_2860_452" style="mask-type:luminance" maskUnits="userSpaceOnUse" x="17" y="17" width="36" height="36">
<path d="M19.0624 17.1338C18.6852 17.1338 18.3396 17.2929 18.1052 17.5536C17.894 17.7743 17.7627 18.0746 17.7531 18.4012V18.488C17.7573 18.6429 17.7878 18.7882 17.8422 18.9218C17.8445 18.9336 17.8494 18.9431 17.8536 18.9549C17.8962 19.0558 17.9499 19.1494 18.018 19.2366C18.0413 19.2697 18.0675 19.3001 18.0957 19.3279C18.1002 19.3352 18.1071 19.342 18.1143 19.3492L22.2876 24.3039L23.7944 26.0923L28.306 31.4465L29.8127 33.2323L33.852 38.0278L35.3561 39.8136V52.3402C35.4387 52.3402 35.5187 52.3379 35.5982 52.331C36.3891 52.2751 37.1027 51.9367 37.6401 51.418C37.6428 51.418 37.6428 51.418 37.6428 51.4153L38.0862 50.8874L48.9206 38.0278L52.6291 33.6243C52.6478 33.6056 52.6642 33.5843 52.6809 33.5634C52.7605 33.4648 52.8236 33.3541 52.8704 33.2323C52.9294 33.0869 52.9599 32.9274 52.9599 32.7581V18.4434C52.9599 18.0982 52.8259 17.7812 52.6056 17.5513C52.3684 17.2929 52.0278 17.1338 51.6476 17.1338H19.0624Z" fill="url(#paint0_linear_2860_452)"/>
</mask>
<g mask="url(#mask2_2860_452)">
<path fill-rule="evenodd" clip-rule="evenodd" d="M19.0624 17.1338C18.6852 17.1338 18.3396 17.2929 18.1052 17.5536C17.894 17.7743 17.7627 18.0746 17.7531 18.4012V18.488C17.7573 18.6429 17.7878 18.7882 17.8422 18.9218C17.8445 18.9336 17.8494 18.9431 17.8536 18.9549C17.8962 19.0558 17.9499 19.1494 18.018 19.2366C18.0413 19.2697 18.0675 19.3001 18.0957 19.3279C18.1002 19.3352 18.1071 19.342 18.1143 19.3492L22.2876 24.3039L23.7944 26.0923L28.306 31.4465L29.8127 33.2323L33.852 38.0278L35.3561 39.8136V52.3402C35.4387 52.3402 35.5187 52.3379 35.5982 52.331C36.3891 52.2751 37.1027 51.9367 37.6401 51.418C37.6428 51.418 37.6428 51.418 37.6428 51.4153L38.0862 50.8874L48.9206 38.0278L52.6291 33.6243C52.6478 33.6056 52.6642 33.5843 52.6809 33.5634C52.7605 33.4648 52.8236 33.3541 52.8704 33.2323C52.9294 33.0869 52.9599 32.9274 52.9599 32.7581V18.4434C52.9599 18.0982 52.8259 17.7812 52.6056 17.5513C52.3684 17.2929 52.0278 17.1338 51.6476 17.1338H19.0624Z" fill="url(#paint1_linear_2860_452)"/>
</g>
<path fill-rule="evenodd" clip-rule="evenodd" d="M35.3565 46.9844V52.3402C34.4693 52.3402 33.6644 51.9881 33.0725 51.4176C33.0702 51.4176 33.0702 51.4157 33.0702 51.4157L32.6268 50.8874L21.7924 38.0278L18.1052 33.6502C18.0957 33.6456 18.0888 33.6361 18.0839 33.6266L18.0252 33.5588C18.0207 33.5539 18.018 33.5493 18.0138 33.5444C17.943 33.4485 17.8821 33.345 17.8422 33.2323C17.7881 33.0987 17.7577 32.9533 17.7531 32.803V32.7139C17.7531 32.6858 17.7554 32.6572 17.7603 32.629C17.7858 32.3337 17.9126 32.0703 18.1052 31.864C18.3423 31.6083 18.6848 31.4465 19.0624 31.4465H22.262L23.7665 33.2323L27.8058 38.0278L34.429 45.8883L35.3542 46.9867L35.3565 46.9844Z" fill="#FCD1CA"/>
<path fill-rule="evenodd" clip-rule="evenodd" d="M35.3565 39.8148V46.9837L35.3542 46.986L34.4301 45.888L27.807 38.0283L23.7669 33.2335L22.262 31.4466L18.0808 26.4867C18.0633 26.4673 18.0458 26.4452 18.0283 26.4227C17.9514 26.3242 17.8875 26.2142 17.841 26.0928C17.7885 25.9588 17.7577 25.8134 17.7531 25.6596V25.5713C17.7619 25.2436 17.8939 24.9487 18.1052 24.7245C18.3408 24.4646 18.6837 24.304 19.0624 24.304H22.2883L23.7955 26.0928L28.3067 31.4466L29.8116 33.2335L33.8516 38.0283L35.3565 39.8148Z" fill="#FF9D8D"/>
</g>
</g>
<defs>
<linearGradient id="paint0_linear_2860_452" x1="3181.67" y1="-399.666" x2="470.603" y2="2311.46" gradientUnits="userSpaceOnUse">
<stop stop-color="#FF6660"/>
<stop offset="1" stop-color="#FB4444"/>
</linearGradient>
<linearGradient id="paint1_linear_2860_452" x1="3181.67" y1="-399.666" x2="470.603" y2="2311.46" gradientUnits="userSpaceOnUse">
<stop stop-color="#FF6660"/>
<stop offset="1" stop-color="#FB4444"/>
</linearGradient>
<clipPath id="clip0_2860_452">
<rect width="70" height="70" fill="white"/>
</clipPath>
</defs>
</svg>
